<svg xmlns="http://www.w3.org/2000/svg" viewBox="0 0 1290 1146" width="1290" height="1146"><defs><style type="text/css">@import url('https://fonts.googleapis.com/css?family=Roboto+Mono:400|Roboto:400,&amp;subset=cyrillic,cyrillic-ext,greek,greek-ext,latin-ext')</style></defs><rect x="0" y="0" width="1290" height="1146" fill="#ffffff"/><text x="645" y="109" text-anchor="middle" font-size="64px" font-family="Roboto,sans-serif" fill="#52565f">TeleDoc</text><text x="1245" y="1087" text-anchor="end" font-size="14px" font-family="Roboto,sans-serif" color="#52565f">28 May 2020</text><g transform="translate(45,213)"><g><g><g transform="translate(10, 586)"><rect x="0" y="0" rx="2" ry="2" width="180" height="228" fill="#ffffff"/><g><g><g transform="translate( 0, 0 )"><svg xmlns="http://www.w3.org/2000/svg" xmlns:xlink="http://www.w3.org/1999/xlink" width="180" height="185" viewBox="0 0 180 185">
  <defs>
    <rect id="dtnp91gmi77-contacts-a" width="160" height="85"/>
  </defs>
  <g fill="none" fill-rule="evenodd">
    <path fill="#58A8F7" d="M0,2.99971296 C0,1.34301724 1.34537458,0 2.99263929,0 L177.007361,0 C178.66015,0 180,1.34382565 180,2.99971296 L180,185 L0,185 L0,2.99971296 Z" opacity=".097"/>
    <path fill="#58A8F7" d="M0,3.00947762 C0,1.34738902 1.34537458,0 2.99263929,0 L177.007361,0 C178.66015,0 180,1.33663106 180,3.00947762 L180,16 L0,16 L0,3.00947762 Z" opacity=".197"/>
    <path fill="#0D87FF" d="M2.5,5 C1.11928813,5 0,3.88071187 0,2.5 C0,1.11928813 1.11928813,0 2.5,0 C3.88071187,0 5,1.11928813 5,2.5 C5,3.88071187 3.88071187,5 2.5,5 Z M10.5,5 C9.11928813,5 8,3.88071187 8,2.5 C8,1.11928813 9.11928813,0 10.5,0 C11.8807119,0 13,1.11928813 13,2.5 C13,3.88071187 11.8807119,5 10.5,5 Z M18.5,5 C17.1192881,5 16,3.88071187 16,2.5 C16,1.11928813 17.1192881,0 18.5,0 C19.8807119,0 21,1.11928813 21,2.5 C21,3.88071187 19.8807119,5 18.5,5 Z" opacity=".499" transform="translate(5 6)"/>
    <g transform="translate(10 28)">
      <path fill="#58A8F7" d="M3.8458278,-1.55376046e-16 L156.154172,1.55376046e-16 C157.49145,-9.02779573e-17 157.97638,0.139238417 158.465269,0.400699056 C158.954157,0.662159695 159.33784,1.04584256 159.599301,1.53473144 C159.860762,2.02362033 160,2.50854969 160,3.8458278 L160,81.1541722 C160,82.4914503 159.860762,82.9763797 159.599301,83.4652686 C159.33784,83.9541574 158.954157,84.3378403 158.465269,84.5993009 C157.97638,84.8607616 157.49145,85 156.154172,85 L3.8458278,85 C2.50854969,85 2.02362033,84.8607616 1.53473144,84.5993009 C1.04584256,84.3378403 0.662159695,83.9541574 0.400699056,83.4652686 C0.139238417,82.9763797 6.01853049e-17,82.4914503 -1.03584031e-16,81.1541722 L1.03584031e-16,3.8458278 C-6.01853049e-17,2.50854969 0.139238417,2.02362033 0.400699056,1.53473144 C0.662159695,1.04584256 1.04584256,0.662159695 1.53473144,0.400699056 C2.02362033,0.139238417 2.50854969,9.02779573e-17 3.8458278,-1.55376046e-16 Z" opacity=".197"/>
      <mask id="dtnp91gmi77-contacts-b" fill="#fff">
        <use xlink:href="#dtnp91gmi77-contacts-a"/>
      </mask>
      <g mask="url(#dtnp91gmi77-contacts-b)" opacity=".197">
        <g transform="translate(-12 -30)">
          <path fill="#58A8F7" fill-rule="nonzero" d="M24,132 L24,64.498762 C24,57.5971161 29.6002817,52 36.5045983,52 L81.5013874,52 C85.0908283,52 88,54.9094758 88,58.5002314 L88,132 L91,132 L91,58.5002314 C91,53.2526917 86.7477527,49 81.5013874,49 L36.5045983,49 C27.943807,49 21,55.9398821 21,64.498762 L21,132 L24,132 Z"/>
          <polygon fill="#58A8F7" fill-rule="nonzero" points="46 8 46 62.009 49 62.009 49 8"/>
          <path fill="#58A8F7" fill-rule="nonzero" d="M123.5,91 L122,92.5 L122,91 L123.5,91 Z M54,114.494714 L54,129 L71,129 L71,94.2979415 C61.3453365,95.9593463 54,104.369859 54,114.494714 Z M74.5028613,91 L122,91 L122,46.4955317 C122,41.8042055 118.197051,38 113.506993,38 L12,38 L12,35 L113.506993,35 C119.854128,35 125,40.1475731 125,46.4955317 L125,94 L74.5028613,94 C74.3347607,94 74.1671326,94.0020223 74,94.0060439 C72.9797913,94.0305923 71.9780462,94.1296363 71,94.2979415 L71,2 L74,2 L74,132 L51,132 L51,114.494714 C51,102.709016 59.6812979,92.9500029 71,91.259183 C71.9814824,91.1125664 72.982796,91.0266161 74,91.0052714 C74.167197,91.001763 74.3348232,91 74.5028613,91 Z"/>
          <path fill="#58A8F7" fill-rule="nonzero" d="M115,10 L58,67 L60.1213203,69.1213203 L117.12132,12.1213203 L115,10 Z M36,89 L7,118 L9.12132034,120.12132 L38.1213203,91.1213203 L36,89 Z"/>
          <path fill="#58A8F7" fill-rule="nonzero" d="M48,92 C54.9558441,92 61,85.9558441 61,79 C61,71.1746402 55.0785506,65 48,65 C40.0441559,65 34,71.0441559 34,79 C34,86.0785506 40.1746402,92 48,92 Z M48,95 C38.3873016,95 31,87.6126984 31,79 C31,69.3873016 38.3873016,62 48,62 C56.6126984,62 64,69.3873016 64,79 C64,87.6126984 56.6126984,95 48,95 Z"/>
          <polygon fill="#58A8F7" fill-rule="nonzero" points="0 81 31.504 81 31.504 78 0 78"/>
          <path fill="#58A8F7" fill-rule="nonzero" d="M196,12.0157093 L157,12.0011223 L157,41.0162702 L196,41.0162702 L196,12.0157093 Z M154,44.0162702 L154,9 L199,9.01683112 L199,80.0162702 L64,80.0162702 L64,77.0162702 L196,77.0162702 L196,41.0162702 L233,41.0162702 L233,119.010071 L156,119.016393 L156,106.01627 L110,106.01627 L110,131.01627 L107,131.01627 L107,103.01627 L159,103.01627 L159,116.016147 L230,116.010318 L230,44.0162702 L154,44.0162702 Z"/>
          <path fill="#58A8F7" fill-rule="nonzero" d="M157.506968,56.0022675 C168.272382,56.0009109 177.000953,64.7334491 177.000953,75.5022815 L177.000953,99.0025771 L214.030024,99.06625 L214.00157,29.9996984 C212.417147,29.9994011 212.395989,29.9993972 210.019198,29.9989585 C205.736805,29.9981775 201.11182,29.9973964 196.315539,29.9966674 C190.148897,29.9957301 184.153551,29.994949 178.500801,29.9943762 C168.094643,29.9933218 159.422857,29.9930289 153.063605,29.9936733 C149.450509,29.9940394 146.632327,29.9947057 144.6814,29.9956941 C144.019658,29.9960294 143.458695,29.9964013 143.000953,29.9968105 L143.000953,56.0040955 L157.506968,56.0022675 Z M105.000953,59.008884 L105.000953,0 L108.000953,0 L108.000953,56.008506 L143.000953,56.0040955 L143.000953,120.99998 L9.0000395,121.001744 L9,118.001744 L140.000953,118.00002 L140.000953,28.5 C140.000953,26.7603171 141.775458,26.7493488 141.708825,26.998687 C142.86348,26.9968272 143.649723,26.9962164 144.67988,26.9956945 C146.631297,26.9947058 149.449834,26.9940394 153.063301,26.9936733 C159.422798,26.9930289 168.094762,26.9933218 178.501105,26.9943763 C184.15391,26.994949 190.149305,26.9957301 196.315995,26.9966674 C201.112308,26.9973964 205.737323,26.9981775 210.019745,26.9989586 C212.417902,26.9994012 212.417902,26.9994012 214.045224,26.9997136 C215.244306,26.999948 215.244306,26.999948 215.501257,27 L217.000335,27.0003038 L217.031262,102.071415 L174.000953,101.997423 L174.000953,75.5022815 C174.000953,66.3900612 166.615368,59.0011197 157.507346,59.0022675 L105.000953,59.008884 Z"/>
        </g>
      </g>
      <path fill="#0D87FF" d="M7,17 C11,15 14,10.8659932 14,7 C14,3.13400675 10.8659932,0 7,0 C3.13400675,0 0,3.13400675 0,7 C0,10.8659932 3,15 7,17 Z" transform="translate(85 39)"/>
    </g>
    <polygon fill="#58A8F7" points="0 0 50 0 50 5 0 5" opacity=".499" transform="translate(10 123)"/>
    <polygon fill="#58A8F7" points="0 0 50 0 50 5 0 5" opacity=".499" transform="translate(100 123)"/>
    <g fill="#58A8F7" opacity=".197" transform="translate(10 133)">
      <polygon points="0 0 70 0 70 3 0 3" transform="translate(0 14)"/>
      <polygon points="0 0 70 0 70 3 0 3" transform="translate(0 7)"/>
      <polygon points="0 0 70 0 70 3 0 3"/>
      <polygon points="0 0 42 0 42 3 0 3" transform="translate(0 21)"/>
    </g>
    <g fill="#58A8F7" opacity=".197" transform="translate(100 133)">
      <polygon points="0 0 70 0 70 3 0 3" transform="translate(0 14)"/>
      <polygon points="0 0 70 0 70 3 0 3" transform="translate(0 7)"/>
      <polygon points="0 0 70 0 70 3 0 3"/>
      <polygon points="0 0 42 0 42 3 0 3" transform="translate(0 21)"/>
    </g>
    <path fill="#0D87FF" d="M0,1.99201702 C0,0.891856397 0.894337654,0 1.99821383,0 L29.0017862,0 C30.1053692,0 31,0.900176167 31,1.99201702 L31,9.00798298 C31,10.1081436 30.1056623,11 29.0017862,11 L1.99821383,11 C0.894630804,11 0,10.0998238 0,9.00798298 L0,1.99201702 Z" opacity=".499" transform="translate(10 164)"/>
  </g>
</svg></g></g></g><rect x="-1" y="-1" rx="3" ry="3" width="182" height="230" fill="none" stroke="#A2CEF9" stroke-width="2"/><g transform="translate(0,206)"><g><text x="90" y="4" text-anchor="middle" font-family="Roboto,sans-serif" font-size="14px" fill="#52565f">Doctor Profile</text></g></g></g><g transform="translate(210, 586)"><rect x="0" y="0" rx="2" ry="2" width="180" height="228" fill="#ffffff"/><g><g><g transform="translate( 0, 0 )"><svg xmlns="http://www.w3.org/2000/svg" width="180" height="185" viewBox="0 0 180 185">
  <g fill="none" fill-rule="evenodd">
    <path fill="#58A8F7" d="M0,2.99971296 C0,1.34301724 1.34537458,0 2.99263929,0 L177.007361,0 C178.66015,0 180,1.34382565 180,2.99971296 L180,185 L0,185 L0,2.99971296 Z" opacity=".097"/>
    <path fill="#58A8F7" d="M0,3.00947762 C0,1.34738902 1.34537458,0 2.99263929,0 L177.007361,0 C178.66015,0 180,1.33663106 180,3.00947762 L180,16 L0,16 L0,3.00947762 Z" opacity=".197"/>
    <path fill="#0D87FF" d="M2.5,5 C1.11928813,5 0,3.88071187 0,2.5 C0,1.11928813 1.11928813,0 2.5,0 C3.88071187,0 5,1.11928813 5,2.5 C5,3.88071187 3.88071187,5 2.5,5 Z M10.5,5 C9.11928813,5 8,3.88071187 8,2.5 C8,1.11928813 9.11928813,0 10.5,0 C11.8807119,0 13,1.11928813 13,2.5 C13,3.88071187 11.8807119,5 10.5,5 Z M18.5,5 C17.1192881,5 16,3.88071187 16,2.5 C16,1.11928813 17.1192881,0 18.5,0 C19.8807119,0 21,1.11928813 21,2.5 C21,3.88071187 19.8807119,5 18.5,5 Z" opacity=".499" transform="translate(5 6)"/>
    <path fill="#FFF" d="M3.8458278,-1.55376046e-16 L126.154172,1.55376046e-16 C127.49145,-9.02779573e-17 127.97638,0.139238417 128.465269,0.400699056 C128.954157,0.662159695 129.33784,1.04584256 129.599301,1.53473144 C129.860762,2.02362033 130,2.50854969 130,3.8458278 L130,135.154172 C130,136.49145 129.860762,136.97638 129.599301,137.465269 C129.33784,137.954157 128.954157,138.33784 128.465269,138.599301 C127.97638,138.860762 127.49145,139 126.154172,139 L3.8458278,139 C2.50854969,139 2.02362033,138.860762 1.53473144,138.599301 C1.04584256,138.33784 0.662159695,137.954157 0.400699056,137.465269 C0.139238417,136.97638 6.72152345e-15,136.49145 6.55775412e-15,135.154172 L1.03584031e-16,3.8458278 C-6.01853049e-17,2.50854969 0.139238417,2.02362033 0.400699056,1.53473144 C0.662159695,1.04584256 1.04584256,0.662159695 1.53473144,0.400699056 C2.02362033,0.139238417 2.50854969,9.02779573e-17 3.8458278,-1.55376046e-16 Z" transform="translate(25 28)"/>
    <polygon fill="#0D87FF" points="2.749 6.529 0 9.558 15.08 24 34 2.798 31.028 0 14.856 18.123" transform="translate(73 38)"/>
    <polygon fill="#58A8F7" points="0 0 50 0 50 5 0 5" opacity=".499" transform="translate(65 69)"/>
    <path fill="#0D87FF" d="M0,1.99201702 C0,0.891856397 0.89599229,0 1.99926044,0 L49.0007396,0 C50.1049006,0 51,0.900176167 51,1.99201702 L51,9.00798298 C51,10.1081436 50.1040077,11 49.0007396,11 L1.99926044,11 C0.895099388,11 0,10.0998238 0,9.00798298 L0,1.99201702 Z" opacity=".499" transform="translate(65 146)"/>
    <polygon fill="#58A8F7" points="0 0 29 0 29 5 0 5" opacity=".499" transform="translate(35 87)"/>
    <polygon fill="#58A8F7" points="0 0 22 0 22 3 0 3" opacity=".197" transform="translate(79 89)"/>
    <polygon fill="#58A8F7" points="0 0 29 0 29 3 0 3" opacity=".197" transform="translate(116 89)"/>
    <polygon fill="#58A8F7" points="0 0 29 0 29 5 0 5" opacity=".499" transform="translate(35 102)"/>
    <polygon fill="#58A8F7" points="0 0 22 0 22 3 0 3" opacity=".197" transform="translate(79 104)"/>
    <polygon fill="#58A8F7" points="0 0 29 0 29 3 0 3" opacity=".197" transform="translate(116 104)"/>
    <polygon fill="#58A8F7" points="0 0 29 0 29 5 0 5" opacity=".499" transform="translate(35 117)"/>
    <polygon fill="#58A8F7" points="0 0 19 0 19 5 0 5" opacity=".499" transform="translate(116 132)"/>
    <polygon fill="#58A8F7" points="0 0 22 0 22 3 0 3" opacity=".197" transform="translate(79 119)"/>
    <polygon fill="#58A8F7" points="0 0 29 0 29 3 0 3" opacity=".197" transform="translate(116 119)"/>
  </g>
</svg></g></g></g><rect x="-1" y="-1" rx="3" ry="3" width="182" height="230" fill="none" stroke="#A2CEF9" stroke-width="2"/><g transform="translate(0,206)"><g><text x="90" y="4" text-anchor="middle" font-family="Roboto,sans-serif" font-size="14px" fill="#52565f">Appointement</text></g></g></g><g transform="translate(10, 306)"><rect x="0" y="0" rx="2" ry="2" width="180" height="228" fill="#ffffff"/><g><g><g transform="translate( 0, 0 )"><svg xmlns="http://www.w3.org/2000/svg" xmlns:xlink="http://www.w3.org/1999/xlink" width="180" height="185" viewBox="0 0 180 185">
  <defs>
    <path id="ladfylnicr8-search_results-a" d="M0,1.99508929 C0,0.893231902 0.897026226,0 2.00494659,0 L21.9950534,0 C23.1023548,0 24,0.892622799 24,1.99508929 L24,16.0049107 C24,17.1067681 23.1029738,18 21.9950534,18 L2.00494659,18 C0.897645164,18 0,17.1073772 0,16.0049107 L0,1.99508929 Z"/>
    <path id="ladfylnicr8-search_results-c" d="M0,1.99508929 C0,0.893231902 0.897026226,0 2.00494659,0 L21.9950534,0 C23.1023548,0 24,0.892622799 24,1.99508929 L24,16.0049107 C24,17.1067681 23.1029738,18 21.9950534,18 L2.00494659,18 C0.897645164,18 0,17.1073772 0,16.0049107 L0,1.99508929 Z"/>
    <path id="ladfylnicr8-search_results-e" d="M0,1.99508929 C0,0.893231902 0.897026226,0 2.00494659,0 L21.9950534,0 C23.1023548,0 24,0.892622799 24,1.99508929 L24,16.0049107 C24,17.1067681 23.1029738,18 21.9950534,18 L2.00494659,18 C0.897645164,18 0,17.1073772 0,16.0049107 L0,1.99508929 Z"/>
  </defs>
  <g fill="none" fill-rule="evenodd">
    <path fill="#58A8F7" d="M0,2.99971296 C0,1.34301724 1.34537458,0 2.99263929,0 L177.007361,0 C178.66015,0 180,1.34382565 180,2.99971296 L180,185 L0,185 L0,2.99971296 Z" opacity=".097"/>
    <path fill="#58A8F7" d="M0,3.00947762 C0,1.34738902 1.34537458,0 2.99263929,0 L177.007361,0 C178.66015,0 180,1.33663106 180,3.00947762 L180,16 L0,16 L0,3.00947762 Z" opacity=".197"/>
    <path fill="#0D87FF" d="M2.5,5 C1.11928813,5 0,3.88071187 0,2.5 C0,1.11928813 1.11928813,0 2.5,0 C3.88071187,0 5,1.11928813 5,2.5 C5,3.88071187 3.88071187,5 2.5,5 Z M10.5,5 C9.11928813,5 8,3.88071187 8,2.5 C8,1.11928813 9.11928813,0 10.5,0 C11.8807119,0 13,1.11928813 13,2.5 C13,3.88071187 11.8807119,5 10.5,5 Z M18.5,5 C17.1192881,5 16,3.88071187 16,2.5 C16,1.11928813 17.1192881,0 18.5,0 C19.8807119,0 21,1.11928813 21,2.5 C21,3.88071187 19.8807119,5 18.5,5 Z" opacity=".499" transform="translate(5 6)"/>
    <g transform="translate(20 36)">
      <g transform="translate(0 6)">
        <rect width="140" height="11" fill="#58A8F7" opacity=".499" rx="2"/>
        <rect width="138" height="9" x="1" y="1" fill="#FFF" rx="1"/>
        <polygon fill="#58A8F7" points="0 0 82 0 82 3 0 3" opacity=".197" transform="translate(4 4)"/>
        <polygon fill="#0D87FF" points="2.5 3 0 0 5 0" transform="translate(130 4)"/>
      </g>
      <polygon fill="#58A8F7" points="0 0 49 0 49 3 0 3" opacity=".197"/>
    </g>
    <g transform="translate(20 73)">
      <path fill="#58A8F7" d="M0,1.99508929 C0,0.893231902 0.897026226,0 2.00494659,0 L21.9950534,0 C23.1023548,0 24,0.892622799 24,1.99508929 L24,16.0049107 C24,17.1067681 23.1029738,18 21.9950534,18 L2.00494659,18 C0.897645164,18 0,17.1073772 0,16.0049107 L0,1.99508929 Z" opacity=".197"/>
      <mask id="ladfylnicr8-search_results-b" fill="#fff">
        <use xlink:href="#ladfylnicr8-search_results-a"/>
      </mask>
      <path fill="#58A8F7" d="M20.5714286,9.81818182 C25.2050919,9.81818182 28.0565771,13.3115424 32.5714286,18 C28.8882603,18 13.1203921,18 8.57142857,18 C12.4922207,14.1389173 15.9377652,9.81818182 20.5714286,9.81818182 Z" mask="url(#ladfylnicr8-search_results-b)" opacity=".197"/>
      <path fill="#0D87FF" d="M3.42857143,8.18181818 C8.31958315,8.18181818 11.9126984,12.8633949 16.2857143,18 C10.5479809,18 -3.34693878,18 -8.57142857,18 C-4.34737299,12.8633949 -1.4624403,8.18181818 3.42857143,8.18181818 Z" mask="url(#ladfylnicr8-search_results-b)" opacity=".198"/>
      <circle cx="12.857" cy="5.727" r="3" fill="#58A8F7" mask="url(#ladfylnicr8-search_results-b)" opacity=".499"/>
    </g>
    <g transform="translate(20 106)">
      <path fill="#58A8F7" d="M0,1.99508929 C0,0.893231902 0.897026226,0 2.00494659,0 L21.9950534,0 C23.1023548,0 24,0.892622799 24,1.99508929 L24,16.0049107 C24,17.1067681 23.1029738,18 21.9950534,18 L2.00494659,18 C0.897645164,18 0,17.1073772 0,16.0049107 L0,1.99508929 Z" opacity=".197"/>
      <mask id="ladfylnicr8-search_results-d" fill="#fff">
        <use xlink:href="#ladfylnicr8-search_results-c"/>
      </mask>
      <path fill="#58A8F7" d="M20.5714286,9.81818182 C25.2050919,9.81818182 28.0565771,13.3115424 32.5714286,18 C28.8882603,18 13.1203921,18 8.57142857,18 C12.4922207,14.1389173 15.9377652,9.81818182 20.5714286,9.81818182 Z" mask="url(#ladfylnicr8-search_results-d)" opacity=".197"/>
      <path fill="#0D87FF" d="M3.42857143,8.18181818 C8.31958315,8.18181818 11.9126984,12.8633949 16.2857143,18 C10.5479809,18 -3.34693878,18 -8.57142857,18 C-4.34737299,12.8633949 -1.4624403,8.18181818 3.42857143,8.18181818 Z" mask="url(#ladfylnicr8-search_results-d)" opacity=".198"/>
      <circle cx="12.857" cy="5.727" r="3" fill="#58A8F7" mask="url(#ladfylnicr8-search_results-d)" opacity=".499"/>
    </g>
    <polygon fill="#58A8F7" points="0 0 50 0 50 8 0 8" opacity=".499" transform="translate(54 73)"/>
    <polygon fill="#58A8F7" points="0 0 50 0 50 8 0 8" opacity=".499" transform="translate(54 106)"/>
    <g fill="#58A8F7" opacity=".197" transform="translate(54 86)">
      <polygon points="0 0 70 0 70 3 0 3"/>
      <polygon points="0 0 42 0 42 3 0 3" transform="translate(0 7)"/>
    </g>
    <g fill="#58A8F7" opacity=".197" transform="translate(54 119)">
      <polygon points="0 0 70 0 70 3 0 3"/>
      <polygon points="0 0 42 0 42 3 0 3" transform="translate(0 7)"/>
    </g>
    <g fill="#58A8F7" opacity=".197" transform="translate(54 152)">
      <polygon points="0 0 70 0 70 3 0 3"/>
      <polygon points="0 0 42 0 42 3 0 3" transform="translate(0 7)"/>
    </g>
    <g transform="translate(20 139)">
      <path fill="#58A8F7" d="M0,1.99508929 C0,0.893231902 0.897026226,0 2.00494659,0 L21.9950534,0 C23.1023548,0 24,0.892622799 24,1.99508929 L24,16.0049107 C24,17.1067681 23.1029738,18 21.9950534,18 L2.00494659,18 C0.897645164,18 0,17.1073772 0,16.0049107 L0,1.99508929 Z" opacity=".197"/>
      <mask id="ladfylnicr8-search_results-f" fill="#fff">
        <use xlink:href="#ladfylnicr8-search_results-e"/>
      </mask>
      <path fill="#58A8F7" d="M20.5714286,9.81818182 C25.2050919,9.81818182 28.0565771,13.3115424 32.5714286,18 C28.8882603,18 13.1203921,18 8.57142857,18 C12.4922207,14.1389173 15.9377652,9.81818182 20.5714286,9.81818182 Z" mask="url(#ladfylnicr8-search_results-f)" opacity=".197"/>
      <path fill="#0D87FF" d="M3.42857143,8.18181818 C8.31958315,8.18181818 11.9126984,12.8633949 16.2857143,18 C10.5479809,18 -3.34693878,18 -8.57142857,18 C-4.34737299,12.8633949 -1.4624403,8.18181818 3.42857143,8.18181818 Z" mask="url(#ladfylnicr8-search_results-f)" opacity=".198"/>
      <circle cx="12.857" cy="5.727" r="3" fill="#58A8F7" mask="url(#ladfylnicr8-search_results-f)" opacity=".499"/>
    </g>
    <polygon fill="#58A8F7" points="0 0 50 0 50 8 0 8" opacity=".499" transform="translate(54 139)"/>
  </g>
</svg></g></g></g><rect x="-1" y="-1" rx="3" ry="3" width="182" height="230" fill="none" stroke="#A2CEF9" stroke-width="2"/><g transform="translate(0,206)"><g><text x="90" y="4" text-anchor="middle" font-family="Roboto,sans-serif" font-size="14px" fill="#52565f">search</text></g></g></g><g transform="translate(410, 586)"><rect x="0" y="0" rx="2" ry="2" width="180" height="228" fill="#ffffff"/><g><g><g transform="translate( 0, 0 )"><svg xmlns="http://www.w3.org/2000/svg" width="180" height="185" viewBox="0 0 180 185">
  <g fill="none" fill-rule="evenodd">
    <path fill="#58A8F7" d="M0,2.99971296 C0,1.34301724 1.34537458,0 2.99263929,0 L177.007361,0 C178.66015,0 180,1.34382565 180,2.99971296 L180,185 L0,185 L0,2.99971296 Z" opacity=".097"/>
    <path fill="#58A8F7" d="M0,3.00947762 C0,1.34738902 1.34537458,0 2.99263929,0 L177.007361,0 C178.66015,0 180,1.33663106 180,3.00947762 L180,16 L0,16 L0,3.00947762 Z" opacity=".197"/>
    <path fill="#0D87FF" d="M2.5,5 C1.11928813,5 0,3.88071187 0,2.5 C0,1.11928813 1.11928813,0 2.5,0 C3.88071187,0 5,1.11928813 5,2.5 C5,3.88071187 3.88071187,5 2.5,5 Z M10.5,5 C9.11928813,5 8,3.88071187 8,2.5 C8,1.11928813 9.11928813,0 10.5,0 C11.8807119,0 13,1.11928813 13,2.5 C13,3.88071187 11.8807119,5 10.5,5 Z M18.5,5 C17.1192881,5 16,3.88071187 16,2.5 C16,1.11928813 17.1192881,0 18.5,0 C19.8807119,0 21,1.11928813 21,2.5 C21,3.88071187 19.8807119,5 18.5,5 Z" opacity=".499" transform="translate(5 6)"/>
    <path fill="#58A8F7" d="M3.8458278,-1.55376046e-16 L107.154172,1.55376046e-16 C108.49145,-9.02779573e-17 108.97638,0.139238417 109.465269,0.400699056 C109.954157,0.662159695 110.33784,1.04584256 110.599301,1.53473144 C110.860762,2.02362033 111,2.50854969 111,3.8458278 L111,108.154172 C111,109.49145 110.860762,109.97638 110.599301,110.465269 C110.33784,110.954157 109.954157,111.33784 109.465269,111.599301 C108.97638,111.860762 108.49145,112 107.154172,112 L3.8458278,112 C2.50854969,112 2.02362033,111.860762 1.53473144,111.599301 C1.04584256,111.33784 0.662159695,110.954157 0.400699056,110.465269 C0.139238417,109.97638 6.01853049e-17,109.49145 -1.03584031e-16,108.154172 L1.03584031e-16,3.8458278 C-6.01853049e-17,2.50854969 0.139238417,2.02362033 0.400699056,1.53473144 C0.662159695,1.04584256 1.04584256,0.662159695 1.53473144,0.400699056 C2.02362033,0.139238417 2.50854969,9.02779573e-17 3.8458278,-1.55376046e-16 Z" opacity=".197" transform="translate(35 54)"/>
    <g transform="translate(45 64)">
      <g transform="translate(0 6)">
        <rect width="91" height="11" fill="#58A8F7" opacity=".499" rx="2"/>
        <rect width="89" height="9" x="1" y="1" fill="#FFF" rx="1"/>
        <polygon fill="#58A8F7" points="0 0 53 0 53 3 0 3" opacity=".197" transform="translate(4 4)"/>
        <polygon fill="#0D87FF" points="2.5 3 0 0 5 0" transform="translate(81 4)"/>
      </g>
      <polygon fill="#58A8F7" points="0 0 32 0 32 3 0 3" opacity=".197"/>
    </g>
    <g transform="translate(45 91)">
      <g transform="translate(0 6)">
        <rect width="91" height="11" fill="#58A8F7" opacity=".499" rx="2"/>
        <rect width="89" height="9" x="1" y="1" fill="#FFF" rx="1"/>
      </g>
      <polygon fill="#58A8F7" points="0 0 20 0 20 3 0 3" opacity=".197"/>
    </g>
    <g transform="translate(45 118)">
      <g transform="translate(0 6)">
        <rect width="91" height="11" fill="#58A8F7" opacity=".499" rx="2"/>
        <rect width="89" height="9" x="1" y="1" fill="#FFF" rx="1"/>
      </g>
      <polygon fill="#58A8F7" points="0 0 20 0 20 3 0 3" opacity=".197"/>
    </g>
    <rect width="31" height="11" fill="#58A8F7" opacity=".197" rx="2" transform="translate(105 145)"/>
    <path fill="#0D87FF" d="M0,1.99201702 C0,0.891856397 0.886195535,0 2.00630931,0 L52.9936907,0 C54.1017447,0 55,0.900176167 55,1.99201702 L55,9.00798298 C55,10.1081436 54.1138045,11 52.9936907,11 L2.00630931,11 C0.898255275,11 0,10.0998238 0,9.00798298 L0,1.99201702 Z" opacity=".499" transform="translate(45 145)"/>
    <polygon fill="#58A8F7" points="0 0 50 0 50 8 0 8" opacity=".499" transform="translate(65 36)"/>
  </g>
</svg></g></g></g><rect x="-1" y="-1" rx="3" ry="3" width="182" height="230" fill="none" stroke="#A2CEF9" stroke-width="2"/><g transform="translate(0,206)"><g><text x="90" y="4" text-anchor="middle" font-family="Roboto,sans-serif" font-size="14px" fill="#52565f">Signup</text></g></g></g><g transform="translate(410, 306)"><rect x="0" y="0" rx="2" ry="2" width="180" height="228" fill="#ffffff"/><g><g><g transform="translate( 0, 0 )"><svg xmlns="http://www.w3.org/2000/svg" width="180" height="185" viewBox="0 0 180 185">
  <g fill="none" fill-rule="evenodd">
    <path fill="#58A8F7" d="M0,2.99971296 C0,1.34301724 1.34537458,0 2.99263929,0 L177.007361,0 C178.66015,0 180,1.34382565 180,2.99971296 L180,185 L0,185 L0,2.99971296 Z" opacity=".097"/>
    <path fill="#58A8F7" d="M0,3.00947762 C0,1.34738902 1.34537458,0 2.99263929,0 L177.007361,0 C178.66015,0 180,1.33663106 180,3.00947762 L180,16 L0,16 L0,3.00947762 Z" opacity=".197"/>
    <path fill="#0D87FF" d="M2.5,5 C1.11928813,5 0,3.88071187 0,2.5 C0,1.11928813 1.11928813,0 2.5,0 C3.88071187,0 5,1.11928813 5,2.5 C5,3.88071187 3.88071187,5 2.5,5 Z M10.5,5 C9.11928813,5 8,3.88071187 8,2.5 C8,1.11928813 9.11928813,0 10.5,0 C11.8807119,0 13,1.11928813 13,2.5 C13,3.88071187 11.8807119,5 10.5,5 Z M18.5,5 C17.1192881,5 16,3.88071187 16,2.5 C16,1.11928813 17.1192881,0 18.5,0 C19.8807119,0 21,1.11928813 21,2.5 C21,3.88071187 19.8807119,5 18.5,5 Z" opacity=".499" transform="translate(5 6)"/>
    <path fill="#58A8F7" d="M3.8458278,-1.55376046e-16 L107.154172,1.55376046e-16 C108.49145,-9.02779573e-17 108.97638,0.139238417 109.465269,0.400699056 C109.954157,0.662159695 110.33784,1.04584256 110.599301,1.53473144 C110.860762,2.02362033 111,2.50854969 111,3.8458278 L111,81.1541722 C111,82.4914503 110.860762,82.9763797 110.599301,83.4652686 C110.33784,83.9541574 109.954157,84.3378403 109.465269,84.5993009 C108.97638,84.8607616 108.49145,85 107.154172,85 L3.8458278,85 C2.50854969,85 2.02362033,84.8607616 1.53473144,84.5993009 C1.04584256,84.3378403 0.662159695,83.9541574 0.400699056,83.4652686 C0.139238417,82.9763797 6.01853049e-17,82.4914503 -1.03584031e-16,81.1541722 L1.03584031e-16,3.8458278 C-6.01853049e-17,2.50854969 0.139238417,2.02362033 0.400699056,1.53473144 C0.662159695,1.04584256 1.04584256,0.662159695 1.53473144,0.400699056 C2.02362033,0.139238417 2.50854969,9.02779573e-17 3.8458278,-1.55376046e-16 Z" opacity=".197" transform="translate(35 54)"/>
    <g transform="translate(45 64)">
      <g transform="translate(0 6)">
        <rect width="91" height="11" fill="#58A8F7" opacity=".499" rx="2"/>
        <rect width="89" height="9" x="1" y="1" fill="#FFF" rx="1"/>
        <polygon fill="#58A8F7" points="0 0 53 0 53 3 0 3" opacity=".197" transform="translate(4 4)"/>
        <polygon fill="#0D87FF" points="2.5 3 0 0 5 0" transform="translate(81 4)"/>
      </g>
      <polygon fill="#58A8F7" points="0 0 32 0 32 3 0 3" opacity=".197"/>
    </g>
    <g transform="translate(45 91)">
      <g transform="translate(0 6)">
        <rect width="91" height="11" fill="#58A8F7" opacity=".499" rx="2"/>
        <rect width="89" height="9" x="1" y="1" fill="#FFF" rx="1"/>
      </g>
      <polygon fill="#58A8F7" points="0 0 20 0 20 3 0 3" opacity=".197"/>
    </g>
    <path fill="#0D87FF" d="M0,1.99201702 C0,0.891856397 0.900658965,0 2.00671997,0 L88.99328,0 C90.1015609,0 91,0.900176167 91,1.99201702 L91,9.00798298 C91,10.1081436 90.099341,11 88.99328,11 L2.00671997,11 C0.898439133,11 0,10.0998238 0,9.00798298 L0,1.99201702 Z" opacity=".499" transform="translate(45 118)"/>
    <polygon fill="#58A8F7" points="0 0 50 0 50 8 0 8" opacity=".499" transform="translate(65 36)"/>
  </g>
</svg></g></g></g><rect x="-1" y="-1" rx="3" ry="3" width="182" height="230" fill="none" stroke="#A2CEF9" stroke-width="2"/><g transform="translate(0,206)"><g><text x="90" y="4" text-anchor="middle" font-family="Roboto,sans-serif" font-size="14px" fill="#52565f">Login</text></g></g></g><g transform="translate(610, 586)"><rect x="0" y="0" rx="2" ry="2" width="180" height="228" fill="#ffffff"/><g><g><g transform="translate( 0, 0 )"><svg xmlns="http://www.w3.org/2000/svg" xmlns:xlink="http://www.w3.org/1999/xlink" width="180" height="185" viewBox="0 0 180 185">
  <defs>
    <path id="timeycpkp8-search_results-a" d="M0,1.99508929 C0,0.893231902 0.897026226,0 2.00494659,0 L21.9950534,0 C23.1023548,0 24,0.892622799 24,1.99508929 L24,16.0049107 C24,17.1067681 23.1029738,18 21.9950534,18 L2.00494659,18 C0.897645164,18 0,17.1073772 0,16.0049107 L0,1.99508929 Z"/>
    <path id="timeycpkp8-search_results-c" d="M0,1.99508929 C0,0.893231902 0.897026226,0 2.00494659,0 L21.9950534,0 C23.1023548,0 24,0.892622799 24,1.99508929 L24,16.0049107 C24,17.1067681 23.1029738,18 21.9950534,18 L2.00494659,18 C0.897645164,18 0,17.1073772 0,16.0049107 L0,1.99508929 Z"/>
    <path id="timeycpkp8-search_results-e" d="M0,1.99508929 C0,0.893231902 0.897026226,0 2.00494659,0 L21.9950534,0 C23.1023548,0 24,0.892622799 24,1.99508929 L24,16.0049107 C24,17.1067681 23.1029738,18 21.9950534,18 L2.00494659,18 C0.897645164,18 0,17.1073772 0,16.0049107 L0,1.99508929 Z"/>
  </defs>
  <g fill="none" fill-rule="evenodd">
    <path fill="#58A8F7" d="M0,2.99971296 C0,1.34301724 1.34537458,0 2.99263929,0 L177.007361,0 C178.66015,0 180,1.34382565 180,2.99971296 L180,185 L0,185 L0,2.99971296 Z" opacity=".097"/>
    <path fill="#58A8F7" d="M0,3.00947762 C0,1.34738902 1.34537458,0 2.99263929,0 L177.007361,0 C178.66015,0 180,1.33663106 180,3.00947762 L180,16 L0,16 L0,3.00947762 Z" opacity=".197"/>
    <path fill="#0D87FF" d="M2.5,5 C1.11928813,5 0,3.88071187 0,2.5 C0,1.11928813 1.11928813,0 2.5,0 C3.88071187,0 5,1.11928813 5,2.5 C5,3.88071187 3.88071187,5 2.5,5 Z M10.5,5 C9.11928813,5 8,3.88071187 8,2.5 C8,1.11928813 9.11928813,0 10.5,0 C11.8807119,0 13,1.11928813 13,2.5 C13,3.88071187 11.8807119,5 10.5,5 Z M18.5,5 C17.1192881,5 16,3.88071187 16,2.5 C16,1.11928813 17.1192881,0 18.5,0 C19.8807119,0 21,1.11928813 21,2.5 C21,3.88071187 19.8807119,5 18.5,5 Z" opacity=".499" transform="translate(5 6)"/>
    <g transform="translate(20 36)">
      <g transform="translate(0 6)">
        <rect width="140" height="11" fill="#58A8F7" opacity=".499" rx="2"/>
        <rect width="138" height="9" x="1" y="1" fill="#FFF" rx="1"/>
        <polygon fill="#58A8F7" points="0 0 82 0 82 3 0 3" opacity=".197" transform="translate(4 4)"/>
        <polygon fill="#0D87FF" points="2.5 3 0 0 5 0" transform="translate(130 4)"/>
      </g>
      <polygon fill="#58A8F7" points="0 0 49 0 49 3 0 3" opacity=".197"/>
    </g>
    <g transform="translate(20 73)">
      <path fill="#58A8F7" d="M0,1.99508929 C0,0.893231902 0.897026226,0 2.00494659,0 L21.9950534,0 C23.1023548,0 24,0.892622799 24,1.99508929 L24,16.0049107 C24,17.1067681 23.1029738,18 21.9950534,18 L2.00494659,18 C0.897645164,18 0,17.1073772 0,16.0049107 L0,1.99508929 Z" opacity=".197"/>
      <mask id="timeycpkp8-search_results-b" fill="#fff">
        <use xlink:href="#timeycpkp8-search_results-a"/>
      </mask>
      <path fill="#58A8F7" d="M20.5714286,9.81818182 C25.2050919,9.81818182 28.0565771,13.3115424 32.5714286,18 C28.8882603,18 13.1203921,18 8.57142857,18 C12.4922207,14.1389173 15.9377652,9.81818182 20.5714286,9.81818182 Z" mask="url(#timeycpkp8-search_results-b)" opacity=".197"/>
      <path fill="#0D87FF" d="M3.42857143,8.18181818 C8.31958315,8.18181818 11.9126984,12.8633949 16.2857143,18 C10.5479809,18 -3.34693878,18 -8.57142857,18 C-4.34737299,12.8633949 -1.4624403,8.18181818 3.42857143,8.18181818 Z" mask="url(#timeycpkp8-search_results-b)" opacity=".198"/>
      <circle cx="12.857" cy="5.727" r="3" fill="#58A8F7" mask="url(#timeycpkp8-search_results-b)" opacity=".499"/>
    </g>
    <g transform="translate(20 106)">
      <path fill="#58A8F7" d="M0,1.99508929 C0,0.893231902 0.897026226,0 2.00494659,0 L21.9950534,0 C23.1023548,0 24,0.892622799 24,1.99508929 L24,16.0049107 C24,17.1067681 23.1029738,18 21.9950534,18 L2.00494659,18 C0.897645164,18 0,17.1073772 0,16.0049107 L0,1.99508929 Z" opacity=".197"/>
      <mask id="timeycpkp8-search_results-d" fill="#fff">
        <use xlink:href="#timeycpkp8-search_results-c"/>
      </mask>
      <path fill="#58A8F7" d="M20.5714286,9.81818182 C25.2050919,9.81818182 28.0565771,13.3115424 32.5714286,18 C28.8882603,18 13.1203921,18 8.57142857,18 C12.4922207,14.1389173 15.9377652,9.81818182 20.5714286,9.81818182 Z" mask="url(#timeycpkp8-search_results-d)" opacity=".197"/>
      <path fill="#0D87FF" d="M3.42857143,8.18181818 C8.31958315,8.18181818 11.9126984,12.8633949 16.2857143,18 C10.5479809,18 -3.34693878,18 -8.57142857,18 C-4.34737299,12.8633949 -1.4624403,8.18181818 3.42857143,8.18181818 Z" mask="url(#timeycpkp8-search_results-d)" opacity=".198"/>
      <circle cx="12.857" cy="5.727" r="3" fill="#58A8F7" mask="url(#timeycpkp8-search_results-d)" opacity=".499"/>
    </g>
    <polygon fill="#58A8F7" points="0 0 50 0 50 8 0 8" opacity=".499" transform="translate(54 73)"/>
    <polygon fill="#58A8F7" points="0 0 50 0 50 8 0 8" opacity=".499" transform="translate(54 106)"/>
    <g fill="#58A8F7" opacity=".197" transform="translate(54 86)">
      <polygon points="0 0 70 0 70 3 0 3"/>
      <polygon points="0 0 42 0 42 3 0 3" transform="translate(0 7)"/>
    </g>
    <g fill="#58A8F7" opacity=".197" transform="translate(54 119)">
      <polygon points="0 0 70 0 70 3 0 3"/>
      <polygon points="0 0 42 0 42 3 0 3" transform="translate(0 7)"/>
    </g>
    <g fill="#58A8F7" opacity=".197" transform="translate(54 152)">
      <polygon points="0 0 70 0 70 3 0 3"/>
      <polygon points="0 0 42 0 42 3 0 3" transform="translate(0 7)"/>
    </g>
    <g transform="translate(20 139)">
      <path fill="#58A8F7" d="M0,1.99508929 C0,0.893231902 0.897026226,0 2.00494659,0 L21.9950534,0 C23.1023548,0 24,0.892622799 24,1.99508929 L24,16.0049107 C24,17.1067681 23.1029738,18 21.9950534,18 L2.00494659,18 C0.897645164,18 0,17.1073772 0,16.0049107 L0,1.99508929 Z" opacity=".197"/>
      <mask id="timeycpkp8-search_results-f" fill="#fff">
        <use xlink:href="#timeycpkp8-search_results-e"/>
      </mask>
      <path fill="#58A8F7" d="M20.5714286,9.81818182 C25.2050919,9.81818182 28.0565771,13.3115424 32.5714286,18 C28.8882603,18 13.1203921,18 8.57142857,18 C12.4922207,14.1389173 15.9377652,9.81818182 20.5714286,9.81818182 Z" mask="url(#timeycpkp8-search_results-f)" opacity=".197"/>
      <path fill="#0D87FF" d="M3.42857143,8.18181818 C8.31958315,8.18181818 11.9126984,12.8633949 16.2857143,18 C10.5479809,18 -3.34693878,18 -8.57142857,18 C-4.34737299,12.8633949 -1.4624403,8.18181818 3.42857143,8.18181818 Z" mask="url(#timeycpkp8-search_results-f)" opacity=".198"/>
      <circle cx="12.857" cy="5.727" r="3" fill="#58A8F7" mask="url(#timeycpkp8-search_results-f)" opacity=".499"/>
    </g>
    <polygon fill="#58A8F7" points="0 0 50 0 50 8 0 8" opacity=".499" transform="translate(54 139)"/>
  </g>
</svg></g></g></g><rect x="-1" y="-1" rx="3" ry="3" width="182" height="230" fill="none" stroke="#A2CEF9" stroke-width="2"/><g transform="translate(0,206)"><g><text x="90" y="4" text-anchor="middle" font-family="Roboto,sans-serif" font-size="14px" fill="#52565f">Appointements</text></g></g></g><g transform="translate(810, 586)"><rect x="0" y="0" rx="2" ry="2" width="180" height="228" fill="#ffffff"/><g><g><g transform="translate( 0, 0 )"><svg xmlns="http://www.w3.org/2000/svg" xmlns:xlink="http://www.w3.org/1999/xlink" width="180" height="185" viewBox="0 0 180 185">
  <defs>
    <path id="azcbypluxl9-lk-a" d="M0,1.99729162 C0,0.894217919 0.899814069,0 1.99402962,0 L158.00597,0 C159.107243,0 160,0.891539827 160,1.99729162 L160,38.0027084 C160,39.1057821 159.100186,40 158.00597,40 L1.99402962,40 C0.89275747,40 0,39.1084602 0,38.0027084 L0,1.99729162 Z"/>
    <circle id="azcbypluxl9-lk-c" cx="18" cy="18" r="18"/>
  </defs>
  <g fill="none" fill-rule="evenodd">
    <path fill="#58A8F7" d="M0,2.99971296 C0,1.34301724 1.34537458,0 2.99263929,0 L177.007361,0 C178.66015,0 180,1.34382565 180,2.99971296 L180,185 L0,185 L0,2.99971296 Z" opacity=".097"/>
    <g transform="translate(10 26)">
      <path fill="#58A8F7" d="M0,1.99729162 C0,0.894217919 0.899814069,0 1.99402962,0 L158.00597,0 C159.107243,0 160,0.891539827 160,1.99729162 L160,38.0027084 C160,39.1057821 159.100186,40 158.00597,40 L1.99402962,40 C0.89275747,40 0,39.1084602 0,38.0027084 L0,1.99729162 Z" opacity=".197"/>
      <mask id="azcbypluxl9-lk-b" fill="#fff">
        <use xlink:href="#azcbypluxl9-lk-a"/>
      </mask>
      <path fill="#58A8F7" d="M123.544554,22 C147.292079,22 158.861386,29.6853933 182,40 C163.123762,40 82.3134379,40 59,40 C79.0940594,31.505618 99.7970297,22 123.544554,22 Z" mask="url(#azcbypluxl9-lk-b)" opacity=".197"/>
      <path fill="#0D87FF" d="M44.5,9 C69.8826643,9 86.3055556,23.781645 109,40 C79.2231422,40 7.11330049,40 -20,40 C1.92139189,23.781645 19.1173357,9 44.5,9 Z" mask="url(#azcbypluxl9-lk-b)" opacity=".198"/>
      <circle cx="94" cy="11" r="7" fill="#58A8F7" mask="url(#azcbypluxl9-lk-b)" opacity=".499"/>
    </g>
    <circle cx="18" cy="18" r="18" fill="#FFF" transform="translate(19 58)"/>
    <g fill="#58A8F7" opacity=".499" transform="translate(60 71)">
      <polygon points="0 0 50 0 50 5 0 5"/>
      <polygon points="0 0 30 0 30 5 0 5" transform="translate(0 9)"/>
    </g>
    <g transform="translate(19 58)">
      <mask id="azcbypluxl9-lk-d" fill="#fff">
        <use xlink:href="#azcbypluxl9-lk-c"/>
      </mask>
      <use fill="#58A8F7" opacity=".197" xlink:href="#azcbypluxl9-lk-c"/>
      <path fill="#0D87FF" d="M18,50.4 C9.3843579,50.4 2.4,43.4156421 2.4,34.8 C2.4,26.1843579 9.3843579,19.2 18,19.2 C26.6156421,19.2 33.6,26.1843579 33.6,34.8 C33.6,43.4156421 26.6156421,50.4 18,50.4 Z M18,16.8 C14.6862915,16.8 12,14.1137085 12,10.8 C12,7.4862915 14.6862915,4.8 18,4.8 C21.3137085,4.8 24,7.4862915 24,10.8 C24,14.1137085 21.3137085,16.8 18,16.8 Z" mask="url(#azcbypluxl9-lk-d)" opacity=".499"/>
    </g>
    <path fill="#58A8F7" d="M0,3.00947762 C0,1.34738902 1.34537458,0 2.99263929,0 L177.007361,0 C178.66015,0 180,1.33663106 180,3.00947762 L180,16 L0,16 L0,3.00947762 Z" opacity=".197"/>
    <path fill="#0D87FF" d="M2.5,5 C1.11928813,5 0,3.88071187 0,2.5 C0,1.11928813 1.11928813,0 2.5,0 C3.88071187,0 5,1.11928813 5,2.5 C5,3.88071187 3.88071187,5 2.5,5 Z M10.5,5 C9.11928813,5 8,3.88071187 8,2.5 C8,1.11928813 9.11928813,0 10.5,0 C11.8807119,0 13,1.11928813 13,2.5 C13,3.88071187 11.8807119,5 10.5,5 Z M18.5,5 C17.1192881,5 16,3.88071187 16,2.5 C16,1.11928813 17.1192881,0 18.5,0 C19.8807119,0 21,1.11928813 21,2.5 C21,3.88071187 19.8807119,5 18.5,5 Z" opacity=".499" transform="translate(5 6)"/>
    <g transform="translate(10 104)">
      <g transform="translate(0 6)">
        <rect width="91" height="11" fill="#58A8F7" opacity=".499" rx="2"/>
        <rect width="89" height="9" x="1" y="1" fill="#FFF" rx="1"/>
        <polygon fill="#58A8F7" points="0 0 53 0 53 3 0 3" opacity=".197" transform="translate(4 4)"/>
        <polygon fill="#0D87FF" points="2.5 3 0 0 5 0" transform="translate(81 4)"/>
      </g>
      <polygon fill="#58A8F7" points="0 0 32 0 32 3 0 3" opacity=".197"/>
    </g>
    <g transform="translate(10 153)">
      <g transform="translate(0 6)">
        <rect width="91" height="11" fill="#58A8F7" opacity=".499" rx="2"/>
        <rect width="89" height="9" x="1" y="1" fill="#FFF" rx="1"/>
        <polygon fill="#58A8F7" points="0 0 53 0 53 3 0 3" opacity=".197" transform="translate(4 4)"/>
        <polygon fill="#0D87FF" points="2.5 3 0 0 5 0" transform="translate(81 4)"/>
      </g>
      <polygon fill="#58A8F7" points="0 0 32 0 32 3 0 3" opacity=".197"/>
    </g>
    <g transform="translate(10 126)">
      <g transform="translate(0 6)">
        <rect width="91" height="11" fill="#58A8F7" opacity=".499" rx="2"/>
        <rect width="89" height="9" x="1" y="1" fill="#FFF" rx="1"/>
        <polygon fill="#58A8F7" points="0 0 53 0 53 3 0 3" opacity=".197" transform="translate(4 4)"/>
        <polygon fill="#0D87FF" points="2.5 3 0 0 5 0" transform="translate(81 4)"/>
      </g>
      <polygon fill="#58A8F7" points="0 0 32 0 32 3 0 3" opacity=".197"/>
    </g>
  </g>
</svg></g></g></g><rect x="-1" y="-1" rx="3" ry="3" width="182" height="230" fill="none" stroke="#A2CEF9" stroke-width="2"/><g transform="translate(0,206)"><g><text x="90" y="4" text-anchor="middle" font-family="Roboto,sans-serif" font-size="14px" fill="#52565f">Profile Settings</text></g></g></g><g transform="translate(1010, 586)"><rect x="0" y="0" rx="2" ry="2" width="180" height="228" fill="#ffffff"/><g><g><g transform="translate( 0, 0 )"><svg xmlns="http://www.w3.org/2000/svg" xmlns:xlink="http://www.w3.org/1999/xlink" width="180" height="185" viewBox="0 0 180 185">
  <defs>
    <rect id="tizuvepmdxc-video_player-a" width="160" height="99" rx="2"/>
  </defs>
  <g fill="none" fill-rule="evenodd">
    <path fill="#58A8F7" d="M0,2.99971296 C0,1.34301724 1.34537458,0 2.99263929,0 L177.007361,0 C178.66015,0 180,1.34382565 180,2.99971296 L180,185 L0,185 L0,2.99971296 Z" opacity=".097"/>
    <path fill="#58A8F7" d="M0,3.00947762 C0,1.34738902 1.34537458,0 2.99263929,0 L177.007361,0 C178.66015,0 180,1.33663106 180,3.00947762 L180,16 L0,16 L0,3.00947762 Z" opacity=".197"/>
    <path fill="#0D87FF" d="M2.5,5 C1.11928813,5 0,3.88071187 0,2.5 C0,1.11928813 1.11928813,0 2.5,0 C3.88071187,0 5,1.11928813 5,2.5 C5,3.88071187 3.88071187,5 2.5,5 Z M10.5,5 C9.11928813,5 8,3.88071187 8,2.5 C8,1.11928813 9.11928813,0 10.5,0 C11.8807119,0 13,1.11928813 13,2.5 C13,3.88071187 11.8807119,5 10.5,5 Z M18.5,5 C17.1192881,5 16,3.88071187 16,2.5 C16,1.11928813 17.1192881,0 18.5,0 C19.8807119,0 21,1.11928813 21,2.5 C21,3.88071187 19.8807119,5 18.5,5 Z" opacity=".499" transform="translate(5 6)"/>
    <g transform="translate(10 63)">
      <rect width="160" height="99" fill="#58A8F7" opacity=".197" rx="2"/>
      <mask id="tizuvepmdxc-video_player-b" fill="#fff">
        <use xlink:href="#tizuvepmdxc-video_player-a"/>
      </mask>
      <use fill="#58A8F7" opacity="0" xlink:href="#tizuvepmdxc-video_player-a"/>
      <path fill="#58A8F7" d="M123.544554,45.8780488 C147.292079,45.8780488 158.861386,68.5593313 182,99 C163.123762,99 82.3134379,99 59,99 C79.0940594,73.931214 99.7970297,45.8780488 123.544554,45.8780488 Z" mask="url(#tizuvepmdxc-video_player-b)" opacity=".197"/>
      <path fill="#0D87FF" d="M44.5,37.4268293 C69.8826643,37.4268293 86.3055556,66.7865954 109,99 C79.2231422,99 7.11330049,99 -20,99 C1.92139189,66.7865954 19.1173357,37.4268293 44.5,37.4268293 Z" mask="url(#tizuvepmdxc-video_player-b)" opacity=".198"/>
      <circle cx="87" cy="26.561" r="9" fill="#58A8F7" mask="url(#tizuvepmdxc-video_player-b)" opacity=".499"/>
      <g transform="translate(56 21)">
        <circle cx="24.5" cy="24.5" r="24.5" fill="#FFF"/>
        <polygon fill="#0D87FF" points="17 10.5 0 21 0 0" transform="translate(19 14)"/>
      </g>
      <rect width="130" height="6" x="25" y="88" fill="#58A8F7" opacity=".197"/>
      <rect width="60" height="6" x="25" y="88" fill="#0D87FF"/>
      <rect width="2" height="10" x="85" y="86" fill="#FFF"/>
      <polygon fill="#0D87FF" points="6 4 0 8 0 0" transform="translate(10 87)"/>
    </g>
    <polygon fill="#58A8F7" points="0 0 50 0 50 8 0 8" opacity=".499" transform="translate(10 29)"/>
    <g fill="#58A8F7" opacity=".197" transform="translate(10 42)">
      <polygon points="0 0 70 0 70 3 0 3"/>
      <polygon points="0 0 42 0 42 3 0 3" transform="translate(0 7)"/>
    </g>
  </g>
</svg></g></g></g><rect x="-1" y="-1" rx="3" ry="3" width="182" height="230" fill="none" stroke="#A2CEF9" stroke-width="2"/><g transform="translate(0,206)"><g><text x="90" y="4" text-anchor="middle" font-family="Roboto,sans-serif" font-size="14px" fill="#52565f">Video Chat</text></g></g></g><g transform="translate(810, 306)"><rect x="0" y="0" rx="2" ry="2" width="180" height="228" fill="#ffffff"/><g><g><g transform="translate( 0, 0 )"><svg xmlns="http://www.w3.org/2000/svg" xmlns:xlink="http://www.w3.org/1999/xlink" width="180" height="185" viewBox="0 0 180 185">
  <defs>
    <path id="803z2i8vz7d-lk-a" d="M0,1.99729162 C0,0.894217919 0.899814069,0 1.99402962,0 L158.00597,0 C159.107243,0 160,0.891539827 160,1.99729162 L160,38.0027084 C160,39.1057821 159.100186,40 158.00597,40 L1.99402962,40 C0.89275747,40 0,39.1084602 0,38.0027084 L0,1.99729162 Z"/>
    <circle id="803z2i8vz7d-lk-c" cx="18" cy="18" r="18"/>
  </defs>
  <g fill="none" fill-rule="evenodd">
    <path fill="#58A8F7" d="M0,2.99971296 C0,1.34301724 1.34537458,0 2.99263929,0 L177.007361,0 C178.66015,0 180,1.34382565 180,2.99971296 L180,185 L0,185 L0,2.99971296 Z" opacity=".097"/>
    <g transform="translate(10 26)">
      <path fill="#58A8F7" d="M0,1.99729162 C0,0.894217919 0.899814069,0 1.99402962,0 L158.00597,0 C159.107243,0 160,0.891539827 160,1.99729162 L160,38.0027084 C160,39.1057821 159.100186,40 158.00597,40 L1.99402962,40 C0.89275747,40 0,39.1084602 0,38.0027084 L0,1.99729162 Z" opacity=".197"/>
      <mask id="803z2i8vz7d-lk-b" fill="#fff">
        <use xlink:href="#803z2i8vz7d-lk-a"/>
      </mask>
      <path fill="#58A8F7" d="M123.544554,22 C147.292079,22 158.861386,29.6853933 182,40 C163.123762,40 82.3134379,40 59,40 C79.0940594,31.505618 99.7970297,22 123.544554,22 Z" mask="url(#803z2i8vz7d-lk-b)" opacity=".197"/>
      <path fill="#0D87FF" d="M44.5,9 C69.8826643,9 86.3055556,23.781645 109,40 C79.2231422,40 7.11330049,40 -20,40 C1.92139189,23.781645 19.1173357,9 44.5,9 Z" mask="url(#803z2i8vz7d-lk-b)" opacity=".198"/>
      <circle cx="94" cy="11" r="7" fill="#58A8F7" mask="url(#803z2i8vz7d-lk-b)" opacity=".499"/>
    </g>
    <circle cx="18" cy="18" r="18" fill="#FFF" transform="translate(19 58)"/>
    <g fill="#58A8F7" opacity=".499" transform="translate(60 71)">
      <polygon points="0 0 50 0 50 5 0 5"/>
      <polygon points="0 0 30 0 30 5 0 5" transform="translate(0 9)"/>
    </g>
    <g transform="translate(19 58)">
      <mask id="803z2i8vz7d-lk-d" fill="#fff">
        <use xlink:href="#803z2i8vz7d-lk-c"/>
      </mask>
      <use fill="#58A8F7" opacity=".197" xlink:href="#803z2i8vz7d-lk-c"/>
      <path fill="#0D87FF" d="M18,50.4 C9.3843579,50.4 2.4,43.4156421 2.4,34.8 C2.4,26.1843579 9.3843579,19.2 18,19.2 C26.6156421,19.2 33.6,26.1843579 33.6,34.8 C33.6,43.4156421 26.6156421,50.4 18,50.4 Z M18,16.8 C14.6862915,16.8 12,14.1137085 12,10.8 C12,7.4862915 14.6862915,4.8 18,4.8 C21.3137085,4.8 24,7.4862915 24,10.8 C24,14.1137085 21.3137085,16.8 18,16.8 Z" mask="url(#803z2i8vz7d-lk-d)" opacity=".499"/>
    </g>
    <path fill="#58A8F7" d="M0,3.00947762 C0,1.34738902 1.34537458,0 2.99263929,0 L177.007361,0 C178.66015,0 180,1.33663106 180,3.00947762 L180,16 L0,16 L0,3.00947762 Z" opacity=".197"/>
    <path fill="#0D87FF" d="M2.5,5 C1.11928813,5 0,3.88071187 0,2.5 C0,1.11928813 1.11928813,0 2.5,0 C3.88071187,0 5,1.11928813 5,2.5 C5,3.88071187 3.88071187,5 2.5,5 Z M10.5,5 C9.11928813,5 8,3.88071187 8,2.5 C8,1.11928813 9.11928813,0 10.5,0 C11.8807119,0 13,1.11928813 13,2.5 C13,3.88071187 11.8807119,5 10.5,5 Z M18.5,5 C17.1192881,5 16,3.88071187 16,2.5 C16,1.11928813 17.1192881,0 18.5,0 C19.8807119,0 21,1.11928813 21,2.5 C21,3.88071187 19.8807119,5 18.5,5 Z" opacity=".499" transform="translate(5 6)"/>
    <g transform="translate(10 104)">
      <g transform="translate(0 6)">
        <rect width="91" height="11" fill="#58A8F7" opacity=".499" rx="2"/>
        <rect width="89" height="9" x="1" y="1" fill="#FFF" rx="1"/>
        <polygon fill="#58A8F7" points="0 0 53 0 53 3 0 3" opacity=".197" transform="translate(4 4)"/>
        <polygon fill="#0D87FF" points="2.5 3 0 0 5 0" transform="translate(81 4)"/>
      </g>
      <polygon fill="#58A8F7" points="0 0 32 0 32 3 0 3" opacity=".197"/>
    </g>
    <g transform="translate(10 153)">
      <g transform="translate(0 6)">
        <rect width="91" height="11" fill="#58A8F7" opacity=".499" rx="2"/>
        <rect width="89" height="9" x="1" y="1" fill="#FFF" rx="1"/>
        <polygon fill="#58A8F7" points="0 0 53 0 53 3 0 3" opacity=".197" transform="translate(4 4)"/>
        <polygon fill="#0D87FF" points="2.5 3 0 0 5 0" transform="translate(81 4)"/>
      </g>
      <polygon fill="#58A8F7" points="0 0 32 0 32 3 0 3" opacity=".197"/>
    </g>
    <g transform="translate(10 126)">
      <g transform="translate(0 6)">
        <rect width="91" height="11" fill="#58A8F7" opacity=".499" rx="2"/>
        <rect width="89" height="9" x="1" y="1" fill="#FFF" rx="1"/>
        <polygon fill="#58A8F7" points="0 0 53 0 53 3 0 3" opacity=".197" transform="translate(4 4)"/>
        <polygon fill="#0D87FF" points="2.5 3 0 0 5 0" transform="translate(81 4)"/>
      </g>
      <polygon fill="#58A8F7" points="0 0 32 0 32 3 0 3" opacity=".197"/>
    </g>
  </g>
</svg></g></g></g><rect x="-1" y="-1" rx="3" ry="3" width="182" height="230" fill="none" stroke="#A2CEF9" stroke-width="2"/><g transform="translate(0,206)"><g><text x="90" y="4" text-anchor="middle" font-family="Roboto,sans-serif" font-size="14px" fill="#52565f">Profile</text></g></g></g><g transform="translate(410, 26)"><rect x="0" y="0" rx="2" ry="2" width="180" height="228" fill="#ffffff"/><g><g><g transform="translate( 0, 0 )"><svg xmlns="http://www.w3.org/2000/svg" xmlns:xlink="http://www.w3.org/1999/xlink" width="180" height="185" viewBox="0 0 180 185">
  <defs>
    <rect id="7a09cr83yve-main-a" width="160" height="82" rx="2"/>
  </defs>
  <g fill="none" fill-rule="evenodd">
    <path fill="#58A8F7" d="M0,2.99971296 C0,1.34301724 1.34537458,0 2.99263929,0 L177.007361,0 C178.66015,0 180,1.34382565 180,2.99971296 L180,185 L0,185 L0,2.99971296 Z" opacity=".097"/>
    <g transform="translate(10 26)">
      <rect width="160" height="82" fill="#58A8F7" opacity=".197" rx="2"/>
      <mask id="7a09cr83yve-main-b" fill="#fff">
        <use xlink:href="#7a09cr83yve-main-a"/>
      </mask>
      <use fill="#58A8F7" opacity="0" xlink:href="#7a09cr83yve-main-a"/>
      <path fill="#58A8F7" d="M123.544554,38 C147.292079,38 158.861386,56.7865169 182,82 C163.123762,82 82.3134379,82 59,82 C79.0940594,61.2359551 99.7970297,38 123.544554,38 Z" mask="url(#7a09cr83yve-main-b)" opacity=".197"/>
      <path fill="#0D87FF" d="M44.5,31 C69.8826643,31 86.3055556,55.3181901 109,82 C79.2231422,82 7.11330049,82 -20,82 C1.92139189,55.3181901 19.1173357,31 44.5,31 Z" mask="url(#7a09cr83yve-main-b)" opacity=".198"/>
      <circle cx="87" cy="22" r="9" fill="#58A8F7" mask="url(#7a09cr83yve-main-b)" opacity=".499"/>
    </g>
    <g transform="translate(26 118)">
      <circle cx="7.5" cy="7.5" r="7.5" fill="#0D87FF" opacity=".499"/>
      <polygon fill="#FFF" points="7.5 9.75 4.855 11.141 5.36 8.195 3.22 6.109 6.177 5.68 7.5 3 8.823 5.68 11.78 6.109 9.64 8.195 10.145 11.141"/>
    </g>
    <g transform="translate(140 118)">
      <circle cx="7.5" cy="7.5" r="7.5" fill="#0D87FF" opacity=".499"/>
      <polygon fill="#FFF" points="7.5 9.75 4.855 11.141 5.36 8.195 3.22 6.109 6.177 5.68 7.5 3 8.823 5.68 11.78 6.109 9.64 8.195 10.145 11.141"/>
    </g>
    <g transform="translate(83 118)">
      <circle cx="7.5" cy="7.5" r="7.5" fill="#0D87FF" opacity=".499"/>
      <polygon fill="#FFF" points="7.5 9.75 4.855 11.141 5.36 8.195 3.22 6.109 6.177 5.68 7.5 3 8.823 5.68 11.78 6.109 9.64 8.195 10.145 11.141"/>
    </g>
    <g fill="#58A8F7" transform="translate(10 139)">
      <polygon points="0 0 26 0 26 5 0 5" opacity=".499" transform="translate(10)"/>
      <polygon points="0 0 46 0 46 3 0 3" opacity=".197" transform="translate(0 17)"/>
      <polygon points="0 0 46 0 46 3 0 3" opacity=".197" transform="translate(0 10)"/>
      <polygon points="0 0 26 0 26 3 0 3" opacity=".197" transform="translate(10 24)"/>
    </g>
    <g fill="#58A8F7" transform="translate(124 139)">
      <polygon points="0 0 26 0 26 5 0 5" opacity=".499" transform="translate(10)"/>
      <polygon points="0 0 46 0 46 3 0 3" opacity=".197" transform="translate(0 17)"/>
      <polygon points="0 0 46 0 46 3 0 3" opacity=".197" transform="translate(0 10)"/>
      <polygon points="0 0 26 0 26 3 0 3" opacity=".197" transform="translate(10 24)"/>
    </g>
    <g fill="#58A8F7" transform="translate(67 139)">
      <polygon points="0 0 26 0 26 5 0 5" opacity=".499" transform="translate(10)"/>
      <polygon points="0 0 46 0 46 3 0 3" opacity=".197" transform="translate(0 17)"/>
      <polygon points="0 0 46 0 46 3 0 3" opacity=".197" transform="translate(0 10)"/>
      <polygon points="0 0 26 0 26 3 0 3" opacity=".197" transform="translate(10 24)"/>
    </g>
    <path fill="#58A8F7" d="M0,3.00947762 C0,1.34738902 1.34537458,0 2.99263929,0 L177.007361,0 C178.66015,0 180,1.33663106 180,3.00947762 L180,16 L0,16 L0,3.00947762 Z" opacity=".197"/>
    <path fill="#0D87FF" d="M2.5,5 C1.11928813,5 0,3.88071187 0,2.5 C0,1.11928813 1.11928813,0 2.5,0 C3.88071187,0 5,1.11928813 5,2.5 C5,3.88071187 3.88071187,5 2.5,5 Z M10.5,5 C9.11928813,5 8,3.88071187 8,2.5 C8,1.11928813 9.11928813,0 10.5,0 C11.8807119,0 13,1.11928813 13,2.5 C13,3.88071187 11.8807119,5 10.5,5 Z M18.5,5 C17.1192881,5 16,3.88071187 16,2.5 C16,1.11928813 17.1192881,0 18.5,0 C19.8807119,0 21,1.11928813 21,2.5 C21,3.88071187 19.8807119,5 18.5,5 Z" opacity=".499" transform="translate(5 6)"/>
  </g>
</svg></g></g></g><rect x="-1" y="-1" rx="3" ry="3" width="182" height="230" fill="none" stroke="#A2CEF9" stroke-width="2"/><g transform="translate(0,206)"><g><text x="90" y="4" text-anchor="middle" font-family="Roboto,sans-serif" font-size="14px" fill="#52565f">Main</text></g></g></g></g><g><g><g><path d="M 60,534L 60,560L 60,586" stroke="#4d9ef6" stroke-width="2" fill="none"/><path d="M 60,560L 250,560Q260,560 260,570L 260,586" stroke="#4d9ef6" stroke-width="2" fill="none"/></g><g><g transform="translate( 50,524 )"><circle cx="10" cy="10" r="9" stroke-width="2" stroke="#A2CEF9" fill="#ffffff"/><path d="M10 7L13 12L7 12Z" fill="#58A8F7"/></g><g transform="translate( 54,580 )"><circle cx="6" cy="6" r="5" stroke-width="2" stroke="#A2CEF9" fill="#ffffff"/><path d="M6 8L4 5L8 5Z" fill="#58A8F7"/></g><g transform="translate( 254,580 )"><circle cx="6" cy="6" r="5" stroke-width="2" stroke="#A2CEF9" fill="#ffffff"/><path d="M6 8L4 5L8 5Z" fill="#58A8F7"/></g></g></g><g><g><path d="M 460,534L 460,560L 460,586" stroke="#4d9ef6" stroke-width="2" fill="none"/></g><g><g transform="translate( 450,524 )"><circle cx="10" cy="10" r="9" stroke-width="2" stroke="#A2CEF9" fill="#ffffff"/><path d="M10 7L13 12L7 12Z" fill="#58A8F7"/></g><g transform="translate( 454,580 )"><circle cx="6" cy="6" r="5" stroke-width="2" stroke="#A2CEF9" fill="#ffffff"/><path d="M6 8L4 5L8 5Z" fill="#58A8F7"/></g></g></g><g><g><path d="M 870,560L 670,560Q660,560 660,570L 660,586" stroke="#4d9ef6" stroke-width="2" fill="none"/><path d="M 860,534L 860,560L 860,586" stroke="#4d9ef6" stroke-width="2" fill="none"/><path d="M 850,560L 1050,560Q1060,560 1060,570L 1060,586" stroke="#4d9ef6" stroke-width="2" fill="none"/></g><g><g transform="translate( 850,524 )"><circle cx="10" cy="10" r="9" stroke-width="2" stroke="#A2CEF9" fill="#ffffff"/><path d="M10 7L13 12L7 12Z" fill="#58A8F7"/></g><g transform="translate( 654,580 )"><circle cx="6" cy="6" r="5" stroke-width="2" stroke="#A2CEF9" fill="#ffffff"/><path d="M6 8L4 5L8 5Z" fill="#58A8F7"/></g><g transform="translate( 854,580 )"><circle cx="6" cy="6" r="5" stroke-width="2" stroke="#A2CEF9" fill="#ffffff"/><path d="M6 8L4 5L8 5Z" fill="#58A8F7"/></g><g transform="translate( 1054,580 )"><circle cx="6" cy="6" r="5" stroke-width="2" stroke="#A2CEF9" fill="#ffffff"/><path d="M6 8L4 5L8 5Z" fill="#58A8F7"/></g></g></g><g><g><path d="M 470,280L 70,280Q60,280 60,290L 60,306" stroke="#4d9ef6" stroke-width="2" fill="none"/><path d="M 460,254L 460,280L 460,306" stroke="#4d9ef6" stroke-width="2" fill="none"/><path d="M 450,280L 850,280Q860,280 860,290L 860,306" stroke="#4d9ef6" stroke-width="2" fill="none"/></g><g><g transform="translate( 450,244 )"><circle cx="10" cy="10" r="9" stroke-width="2" stroke="#A2CEF9" fill="#ffffff"/><path d="M10 7L13 12L7 12Z" fill="#58A8F7"/></g><g transform="translate( 54,300 )"><circle cx="6" cy="6" r="5" stroke-width="2" stroke="#A2CEF9" fill="#ffffff"/><path d="M6 8L4 5L8 5Z" fill="#58A8F7"/></g><g transform="translate( 454,300 )"><circle cx="6" cy="6" r="5" stroke-width="2" stroke="#A2CEF9" fill="#ffffff"/><path d="M6 8L4 5L8 5Z" fill="#58A8F7"/></g><g transform="translate( 854,300 )"><circle cx="6" cy="6" r="5" stroke-width="2" stroke="#A2CEF9" fill="#ffffff"/><path d="M6 8L4 5L8 5Z" fill="#58A8F7"/></g></g></g></g></g></g></svg>