<svg xmlns="http://www.w3.org/2000/svg" viewBox="0 0 1466 1474" width="1466" height="1474"><defs><style type="text/css">@import url('https://fonts.googleapis.com/css?family=Roboto+Mono:400|Roboto:400,&amp;subset=cyrillic,cyrillic-ext,greek,greek-ext,latin-ext')</style></defs><text x="733" y="69" text-anchor="middle" font-size="64px" font-family="Roboto,sans-serif" fill="#52565f">Teleconseille</text><text x="1461" y="1455" text-anchor="end" font-size="14px" font-family="Roboto,sans-serif" color="#52565f">28 May 2020</text><g transform="translate(5,173)"><g><g><g transform="translate(638, 142)"><rect x="0" y="0" rx="2" ry="2" width="180" height="228" fill="#ffffff"/><g><g><g transform="translate( 0, 0 )"><svg xmlns="http://www.w3.org/2000/svg" xmlns:xlink="http://www.w3.org/1999/xlink" width="180" height="185" viewBox="0 0 180 185">
  <defs>
    <rect id="bnypuien7dj-main-a" width="160" height="82" rx="2"/>
  </defs>
  <g fill="none" fill-rule="evenodd">
    <path fill="#58A8F7" d="M0,2.99971296 C0,1.34301724 1.34537458,0 2.99263929,0 L177.007361,0 C178.66015,0 180,1.34382565 180,2.99971296 L180,185 L0,185 L0,2.99971296 Z" opacity=".097"/>
    <g transform="translate(10 26)">
      <rect width="160" height="82" fill="#58A8F7" opacity=".197" rx="2"/>
      <mask id="bnypuien7dj-main-b" fill="#fff">
        <use xlink:href="#bnypuien7dj-main-a"/>
      </mask>
      <use fill="#58A8F7" opacity="0" xlink:href="#bnypuien7dj-main-a"/>
      <path fill="#58A8F7" d="M123.544554,38 C147.292079,38 158.861386,56.7865169 182,82 C163.123762,82 82.3134379,82 59,82 C79.0940594,61.2359551 99.7970297,38 123.544554,38 Z" mask="url(#bnypuien7dj-main-b)" opacity=".197"/>
      <path fill="#0D87FF" d="M44.5,31 C69.8826643,31 86.3055556,55.3181901 109,82 C79.2231422,82 7.11330049,82 -20,82 C1.92139189,55.3181901 19.1173357,31 44.5,31 Z" mask="url(#bnypuien7dj-main-b)" opacity=".198"/>
      <circle cx="87" cy="22" r="9" fill="#58A8F7" mask="url(#bnypuien7dj-main-b)" opacity=".499"/>
    </g>
    <g transform="translate(26 118)">
      <circle cx="7.5" cy="7.5" r="7.5" fill="#0D87FF" opacity=".499"/>
      <polygon fill="#FFF" points="7.5 9.75 4.855 11.141 5.36 8.195 3.22 6.109 6.177 5.68 7.5 3 8.823 5.68 11.78 6.109 9.64 8.195 10.145 11.141"/>
    </g>
    <g transform="translate(140 118)">
      <circle cx="7.5" cy="7.5" r="7.5" fill="#0D87FF" opacity=".499"/>
      <polygon fill="#FFF" points="7.5 9.75 4.855 11.141 5.36 8.195 3.22 6.109 6.177 5.68 7.5 3 8.823 5.68 11.78 6.109 9.64 8.195 10.145 11.141"/>
    </g>
    <g transform="translate(83 118)">
      <circle cx="7.5" cy="7.5" r="7.5" fill="#0D87FF" opacity=".499"/>
      <polygon fill="#FFF" points="7.5 9.75 4.855 11.141 5.36 8.195 3.22 6.109 6.177 5.68 7.5 3 8.823 5.68 11.78 6.109 9.64 8.195 10.145 11.141"/>
    </g>
    <g fill="#58A8F7" transform="translate(10 139)">
      <polygon points="0 0 26 0 26 5 0 5" opacity=".499" transform="translate(10)"/>
      <polygon points="0 0 46 0 46 3 0 3" opacity=".197" transform="translate(0 17)"/>
      <polygon points="0 0 46 0 46 3 0 3" opacity=".197" transform="translate(0 10)"/>
      <polygon points="0 0 26 0 26 3 0 3" opacity=".197" transform="translate(10 24)"/>
    </g>
    <g fill="#58A8F7" transform="translate(124 139)">
      <polygon points="0 0 26 0 26 5 0 5" opacity=".499" transform="translate(10)"/>
      <polygon points="0 0 46 0 46 3 0 3" opacity=".197" transform="translate(0 17)"/>
      <polygon points="0 0 46 0 46 3 0 3" opacity=".197" transform="translate(0 10)"/>
      <polygon points="0 0 26 0 26 3 0 3" opacity=".197" transform="translate(10 24)"/>
    </g>
    <g fill="#58A8F7" transform="translate(67 139)">
      <polygon points="0 0 26 0 26 5 0 5" opacity=".499" transform="translate(10)"/>
      <polygon points="0 0 46 0 46 3 0 3" opacity=".197" transform="translate(0 17)"/>
      <polygon points="0 0 46 0 46 3 0 3" opacity=".197" transform="translate(0 10)"/>
      <polygon points="0 0 26 0 26 3 0 3" opacity=".197" transform="translate(10 24)"/>
    </g>
    <path fill="#58A8F7" d="M0,3.00947762 C0,1.34738902 1.34537458,0 2.99263929,0 L177.007361,0 C178.66015,0 180,1.33663106 180,3.00947762 L180,16 L0,16 L0,3.00947762 Z" opacity=".197"/>
    <path fill="#0D87FF" d="M2.5,5 C1.11928813,5 0,3.88071187 0,2.5 C0,1.11928813 1.11928813,0 2.5,0 C3.88071187,0 5,1.11928813 5,2.5 C5,3.88071187 3.88071187,5 2.5,5 Z M10.5,5 C9.11928813,5 8,3.88071187 8,2.5 C8,1.11928813 9.11928813,0 10.5,0 C11.8807119,0 13,1.11928813 13,2.5 C13,3.88071187 11.8807119,5 10.5,5 Z M18.5,5 C17.1192881,5 16,3.88071187 16,2.5 C16,1.11928813 17.1192881,0 18.5,0 C19.8807119,0 21,1.11928813 21,2.5 C21,3.88071187 19.8807119,5 18.5,5 Z" opacity=".499" transform="translate(5 6)"/>
  </g>
</svg></g></g></g><rect x="-1" y="-1" rx="3" ry="3" width="182" height="230" fill="none" stroke="#A2CEF9" stroke-width="2"/><g transform="translate(0,206)"><g><text x="90" y="4" text-anchor="middle" font-family="Roboto,sans-serif" font-size="14px" fill="#52565f">Main</text></g></g></g><g transform="translate(862, 142)"><rect x="0" y="0" rx="2" ry="2" width="180" height="228" fill="#ffffff"/><g><g><g transform="translate( 0, 0 )"><svg xmlns="http://www.w3.org/2000/svg" xmlns:xlink="http://www.w3.org/1999/xlink" width="180" height="185" viewBox="0 0 180 185">
  <defs>
    <path id="ikt571gpa4k-search_results-a" d="M0,1.99508929 C0,0.893231902 0.897026226,0 2.00494659,0 L21.9950534,0 C23.1023548,0 24,0.892622799 24,1.99508929 L24,16.0049107 C24,17.1067681 23.1029738,18 21.9950534,18 L2.00494659,18 C0.897645164,18 0,17.1073772 0,16.0049107 L0,1.99508929 Z"/>
    <path id="ikt571gpa4k-search_results-c" d="M0,1.99508929 C0,0.893231902 0.897026226,0 2.00494659,0 L21.9950534,0 C23.1023548,0 24,0.892622799 24,1.99508929 L24,16.0049107 C24,17.1067681 23.1029738,18 21.9950534,18 L2.00494659,18 C0.897645164,18 0,17.1073772 0,16.0049107 L0,1.99508929 Z"/>
    <path id="ikt571gpa4k-search_results-e" d="M0,1.99508929 C0,0.893231902 0.897026226,0 2.00494659,0 L21.9950534,0 C23.1023548,0 24,0.892622799 24,1.99508929 L24,16.0049107 C24,17.1067681 23.1029738,18 21.9950534,18 L2.00494659,18 C0.897645164,18 0,17.1073772 0,16.0049107 L0,1.99508929 Z"/>
  </defs>
  <g fill="none" fill-rule="evenodd">
    <path fill="#58A8F7" d="M0,2.99971296 C0,1.34301724 1.34537458,0 2.99263929,0 L177.007361,0 C178.66015,0 180,1.34382565 180,2.99971296 L180,185 L0,185 L0,2.99971296 Z" opacity=".097"/>
    <path fill="#58A8F7" d="M0,3.00947762 C0,1.34738902 1.34537458,0 2.99263929,0 L177.007361,0 C178.66015,0 180,1.33663106 180,3.00947762 L180,16 L0,16 L0,3.00947762 Z" opacity=".197"/>
    <path fill="#0D87FF" d="M2.5,5 C1.11928813,5 0,3.88071187 0,2.5 C0,1.11928813 1.11928813,0 2.5,0 C3.88071187,0 5,1.11928813 5,2.5 C5,3.88071187 3.88071187,5 2.5,5 Z M10.5,5 C9.11928813,5 8,3.88071187 8,2.5 C8,1.11928813 9.11928813,0 10.5,0 C11.8807119,0 13,1.11928813 13,2.5 C13,3.88071187 11.8807119,5 10.5,5 Z M18.5,5 C17.1192881,5 16,3.88071187 16,2.5 C16,1.11928813 17.1192881,0 18.5,0 C19.8807119,0 21,1.11928813 21,2.5 C21,3.88071187 19.8807119,5 18.5,5 Z" opacity=".499" transform="translate(5 6)"/>
    <g transform="translate(20 36)">
      <g transform="translate(0 6)">
        <rect width="140" height="11" fill="#58A8F7" opacity=".499" rx="2"/>
        <rect width="138" height="9" x="1" y="1" fill="#FFF" rx="1"/>
        <polygon fill="#58A8F7" points="0 0 82 0 82 3 0 3" opacity=".197" transform="translate(4 4)"/>
        <polygon fill="#0D87FF" points="2.5 3 0 0 5 0" transform="translate(130 4)"/>
      </g>
      <polygon fill="#58A8F7" points="0 0 49 0 49 3 0 3" opacity=".197"/>
    </g>
    <g transform="translate(20 73)">
      <path fill="#58A8F7" d="M0,1.99508929 C0,0.893231902 0.897026226,0 2.00494659,0 L21.9950534,0 C23.1023548,0 24,0.892622799 24,1.99508929 L24,16.0049107 C24,17.1067681 23.1029738,18 21.9950534,18 L2.00494659,18 C0.897645164,18 0,17.1073772 0,16.0049107 L0,1.99508929 Z" opacity=".197"/>
      <mask id="ikt571gpa4k-search_results-b" fill="#fff">
        <use xlink:href="#ikt571gpa4k-search_results-a"/>
      </mask>
      <path fill="#58A8F7" d="M20.5714286,9.81818182 C25.2050919,9.81818182 28.0565771,13.3115424 32.5714286,18 C28.8882603,18 13.1203921,18 8.57142857,18 C12.4922207,14.1389173 15.9377652,9.81818182 20.5714286,9.81818182 Z" mask="url(#ikt571gpa4k-search_results-b)" opacity=".197"/>
      <path fill="#0D87FF" d="M3.42857143,8.18181818 C8.31958315,8.18181818 11.9126984,12.8633949 16.2857143,18 C10.5479809,18 -3.34693878,18 -8.57142857,18 C-4.34737299,12.8633949 -1.4624403,8.18181818 3.42857143,8.18181818 Z" mask="url(#ikt571gpa4k-search_results-b)" opacity=".198"/>
      <circle cx="12.857" cy="5.727" r="3" fill="#58A8F7" mask="url(#ikt571gpa4k-search_results-b)" opacity=".499"/>
    </g>
    <g transform="translate(20 106)">
      <path fill="#58A8F7" d="M0,1.99508929 C0,0.893231902 0.897026226,0 2.00494659,0 L21.9950534,0 C23.1023548,0 24,0.892622799 24,1.99508929 L24,16.0049107 C24,17.1067681 23.1029738,18 21.9950534,18 L2.00494659,18 C0.897645164,18 0,17.1073772 0,16.0049107 L0,1.99508929 Z" opacity=".197"/>
      <mask id="ikt571gpa4k-search_results-d" fill="#fff">
        <use xlink:href="#ikt571gpa4k-search_results-c"/>
      </mask>
      <path fill="#58A8F7" d="M20.5714286,9.81818182 C25.2050919,9.81818182 28.0565771,13.3115424 32.5714286,18 C28.8882603,18 13.1203921,18 8.57142857,18 C12.4922207,14.1389173 15.9377652,9.81818182 20.5714286,9.81818182 Z" mask="url(#ikt571gpa4k-search_results-d)" opacity=".197"/>
      <path fill="#0D87FF" d="M3.42857143,8.18181818 C8.31958315,8.18181818 11.9126984,12.8633949 16.2857143,18 C10.5479809,18 -3.34693878,18 -8.57142857,18 C-4.34737299,12.8633949 -1.4624403,8.18181818 3.42857143,8.18181818 Z" mask="url(#ikt571gpa4k-search_results-d)" opacity=".198"/>
      <circle cx="12.857" cy="5.727" r="3" fill="#58A8F7" mask="url(#ikt571gpa4k-search_results-d)" opacity=".499"/>
    </g>
    <polygon fill="#58A8F7" points="0 0 50 0 50 8 0 8" opacity=".499" transform="translate(54 73)"/>
    <polygon fill="#58A8F7" points="0 0 50 0 50 8 0 8" opacity=".499" transform="translate(54 106)"/>
    <g fill="#58A8F7" opacity=".197" transform="translate(54 86)">
      <polygon points="0 0 70 0 70 3 0 3"/>
      <polygon points="0 0 42 0 42 3 0 3" transform="translate(0 7)"/>
    </g>
    <g fill="#58A8F7" opacity=".197" transform="translate(54 119)">
      <polygon points="0 0 70 0 70 3 0 3"/>
      <polygon points="0 0 42 0 42 3 0 3" transform="translate(0 7)"/>
    </g>
    <g fill="#58A8F7" opacity=".197" transform="translate(54 152)">
      <polygon points="0 0 70 0 70 3 0 3"/>
      <polygon points="0 0 42 0 42 3 0 3" transform="translate(0 7)"/>
    </g>
    <g transform="translate(20 139)">
      <path fill="#58A8F7" d="M0,1.99508929 C0,0.893231902 0.897026226,0 2.00494659,0 L21.9950534,0 C23.1023548,0 24,0.892622799 24,1.99508929 L24,16.0049107 C24,17.1067681 23.1029738,18 21.9950534,18 L2.00494659,18 C0.897645164,18 0,17.1073772 0,16.0049107 L0,1.99508929 Z" opacity=".197"/>
      <mask id="ikt571gpa4k-search_results-f" fill="#fff">
        <use xlink:href="#ikt571gpa4k-search_results-e"/>
      </mask>
      <path fill="#58A8F7" d="M20.5714286,9.81818182 C25.2050919,9.81818182 28.0565771,13.3115424 32.5714286,18 C28.8882603,18 13.1203921,18 8.57142857,18 C12.4922207,14.1389173 15.9377652,9.81818182 20.5714286,9.81818182 Z" mask="url(#ikt571gpa4k-search_results-f)" opacity=".197"/>
      <path fill="#0D87FF" d="M3.42857143,8.18181818 C8.31958315,8.18181818 11.9126984,12.8633949 16.2857143,18 C10.5479809,18 -3.34693878,18 -8.57142857,18 C-4.34737299,12.8633949 -1.4624403,8.18181818 3.42857143,8.18181818 Z" mask="url(#ikt571gpa4k-search_results-f)" opacity=".198"/>
      <circle cx="12.857" cy="5.727" r="3" fill="#58A8F7" mask="url(#ikt571gpa4k-search_results-f)" opacity=".499"/>
    </g>
    <polygon fill="#58A8F7" points="0 0 50 0 50 8 0 8" opacity=".499" transform="translate(54 139)"/>
  </g>
</svg></g></g></g><rect x="-1" y="-1" rx="3" ry="3" width="182" height="230" fill="none" stroke="#A2CEF9" stroke-width="2"/><g transform="translate(0,206)"><g><text x="90" y="4" text-anchor="middle" font-family="Roboto,sans-serif" font-size="14px" fill="#52565f">search</text></g></g></g><g transform="translate(1198, 142)"><rect x="0" y="0" rx="2" ry="2" width="180" height="228" fill="#ffffff"/><g><g><g transform="translate( 0, 0 )"><svg xmlns="http://www.w3.org/2000/svg" xmlns:xlink="http://www.w3.org/1999/xlink" width="180" height="185" viewBox="0 0 180 185">
  <defs>
    <rect id="g5jakqcn66k-contacts-a" width="160" height="85"/>
  </defs>
  <g fill="none" fill-rule="evenodd">
    <path fill="#58A8F7" d="M0,2.99971296 C0,1.34301724 1.34537458,0 2.99263929,0 L177.007361,0 C178.66015,0 180,1.34382565 180,2.99971296 L180,185 L0,185 L0,2.99971296 Z" opacity=".097"/>
    <path fill="#58A8F7" d="M0,3.00947762 C0,1.34738902 1.34537458,0 2.99263929,0 L177.007361,0 C178.66015,0 180,1.33663106 180,3.00947762 L180,16 L0,16 L0,3.00947762 Z" opacity=".197"/>
    <path fill="#0D87FF" d="M2.5,5 C1.11928813,5 0,3.88071187 0,2.5 C0,1.11928813 1.11928813,0 2.5,0 C3.88071187,0 5,1.11928813 5,2.5 C5,3.88071187 3.88071187,5 2.5,5 Z M10.5,5 C9.11928813,5 8,3.88071187 8,2.5 C8,1.11928813 9.11928813,0 10.5,0 C11.8807119,0 13,1.11928813 13,2.5 C13,3.88071187 11.8807119,5 10.5,5 Z M18.5,5 C17.1192881,5 16,3.88071187 16,2.5 C16,1.11928813 17.1192881,0 18.5,0 C19.8807119,0 21,1.11928813 21,2.5 C21,3.88071187 19.8807119,5 18.5,5 Z" opacity=".499" transform="translate(5 6)"/>
    <g transform="translate(10 28)">
      <path fill="#58A8F7" d="M3.8458278,-1.55376046e-16 L156.154172,1.55376046e-16 C157.49145,-9.02779573e-17 157.97638,0.139238417 158.465269,0.400699056 C158.954157,0.662159695 159.33784,1.04584256 159.599301,1.53473144 C159.860762,2.02362033 160,2.50854969 160,3.8458278 L160,81.1541722 C160,82.4914503 159.860762,82.9763797 159.599301,83.4652686 C159.33784,83.9541574 158.954157,84.3378403 158.465269,84.5993009 C157.97638,84.8607616 157.49145,85 156.154172,85 L3.8458278,85 C2.50854969,85 2.02362033,84.8607616 1.53473144,84.5993009 C1.04584256,84.3378403 0.662159695,83.9541574 0.400699056,83.4652686 C0.139238417,82.9763797 6.01853049e-17,82.4914503 -1.03584031e-16,81.1541722 L1.03584031e-16,3.8458278 C-6.01853049e-17,2.50854969 0.139238417,2.02362033 0.400699056,1.53473144 C0.662159695,1.04584256 1.04584256,0.662159695 1.53473144,0.400699056 C2.02362033,0.139238417 2.50854969,9.02779573e-17 3.8458278,-1.55376046e-16 Z" opacity=".197"/>
      <mask id="g5jakqcn66k-contacts-b" fill="#fff">
        <use xlink:href="#g5jakqcn66k-contacts-a"/>
      </mask>
      <g mask="url(#g5jakqcn66k-contacts-b)" opacity=".197">
        <g transform="translate(-12 -30)">
          <path fill="#58A8F7" fill-rule="nonzero" d="M24,132 L24,64.498762 C24,57.5971161 29.6002817,52 36.5045983,52 L81.5013874,52 C85.0908283,52 88,54.9094758 88,58.5002314 L88,132 L91,132 L91,58.5002314 C91,53.2526917 86.7477527,49 81.5013874,49 L36.5045983,49 C27.943807,49 21,55.9398821 21,64.498762 L21,132 L24,132 Z"/>
          <polygon fill="#58A8F7" fill-rule="nonzero" points="46 8 46 62.009 49 62.009 49 8"/>
          <path fill="#58A8F7" fill-rule="nonzero" d="M123.5,91 L122,92.5 L122,91 L123.5,91 Z M54,114.494714 L54,129 L71,129 L71,94.2979415 C61.3453365,95.9593463 54,104.369859 54,114.494714 Z M74.5028613,91 L122,91 L122,46.4955317 C122,41.8042055 118.197051,38 113.506993,38 L12,38 L12,35 L113.506993,35 C119.854128,35 125,40.1475731 125,46.4955317 L125,94 L74.5028613,94 C74.3347607,94 74.1671326,94.0020223 74,94.0060439 C72.9797913,94.0305923 71.9780462,94.1296363 71,94.2979415 L71,2 L74,2 L74,132 L51,132 L51,114.494714 C51,102.709016 59.6812979,92.9500029 71,91.259183 C71.9814824,91.1125664 72.982796,91.0266161 74,91.0052714 C74.167197,91.001763 74.3348232,91 74.5028613,91 Z"/>
          <path fill="#58A8F7" fill-rule="nonzero" d="M115,10 L58,67 L60.1213203,69.1213203 L117.12132,12.1213203 L115,10 Z M36,89 L7,118 L9.12132034,120.12132 L38.1213203,91.1213203 L36,89 Z"/>
          <path fill="#58A8F7" fill-rule="nonzero" d="M48,92 C54.9558441,92 61,85.9558441 61,79 C61,71.1746402 55.0785506,65 48,65 C40.0441559,65 34,71.0441559 34,79 C34,86.0785506 40.1746402,92 48,92 Z M48,95 C38.3873016,95 31,87.6126984 31,79 C31,69.3873016 38.3873016,62 48,62 C56.6126984,62 64,69.3873016 64,79 C64,87.6126984 56.6126984,95 48,95 Z"/>
          <polygon fill="#58A8F7" fill-rule="nonzero" points="0 81 31.504 81 31.504 78 0 78"/>
          <path fill="#58A8F7" fill-rule="nonzero" d="M196,12.0157093 L157,12.0011223 L157,41.0162702 L196,41.0162702 L196,12.0157093 Z M154,44.0162702 L154,9 L199,9.01683112 L199,80.0162702 L64,80.0162702 L64,77.0162702 L196,77.0162702 L196,41.0162702 L233,41.0162702 L233,119.010071 L156,119.016393 L156,106.01627 L110,106.01627 L110,131.01627 L107,131.01627 L107,103.01627 L159,103.01627 L159,116.016147 L230,116.010318 L230,44.0162702 L154,44.0162702 Z"/>
          <path fill="#58A8F7" fill-rule="nonzero" d="M157.506968,56.0022675 C168.272382,56.0009109 177.000953,64.7334491 177.000953,75.5022815 L177.000953,99.0025771 L214.030024,99.06625 L214.00157,29.9996984 C212.417147,29.9994011 212.395989,29.9993972 210.019198,29.9989585 C205.736805,29.9981775 201.11182,29.9973964 196.315539,29.9966674 C190.148897,29.9957301 184.153551,29.994949 178.500801,29.9943762 C168.094643,29.9933218 159.422857,29.9930289 153.063605,29.9936733 C149.450509,29.9940394 146.632327,29.9947057 144.6814,29.9956941 C144.019658,29.9960294 143.458695,29.9964013 143.000953,29.9968105 L143.000953,56.0040955 L157.506968,56.0022675 Z M105.000953,59.008884 L105.000953,0 L108.000953,0 L108.000953,56.008506 L143.000953,56.0040955 L143.000953,120.99998 L9.0000395,121.001744 L9,118.001744 L140.000953,118.00002 L140.000953,28.5 C140.000953,26.7603171 141.775458,26.7493488 141.708825,26.998687 C142.86348,26.9968272 143.649723,26.9962164 144.67988,26.9956945 C146.631297,26.9947058 149.449834,26.9940394 153.063301,26.9936733 C159.422798,26.9930289 168.094762,26.9933218 178.501105,26.9943763 C184.15391,26.994949 190.149305,26.9957301 196.315995,26.9966674 C201.112308,26.9973964 205.737323,26.9981775 210.019745,26.9989586 C212.417902,26.9994012 212.417902,26.9994012 214.045224,26.9997136 C215.244306,26.999948 215.244306,26.999948 215.501257,27 L217.000335,27.0003038 L217.031262,102.071415 L174.000953,101.997423 L174.000953,75.5022815 C174.000953,66.3900612 166.615368,59.0011197 157.507346,59.0022675 L105.000953,59.008884 Z"/>
        </g>
      </g>
      <path fill="#0D87FF" d="M7,17 C11,15 14,10.8659932 14,7 C14,3.13400675 10.8659932,0 7,0 C3.13400675,0 0,3.13400675 0,7 C0,10.8659932 3,15 7,17 Z" transform="translate(85 39)"/>
    </g>
    <polygon fill="#58A8F7" points="0 0 50 0 50 5 0 5" opacity=".499" transform="translate(10 123)"/>
    <polygon fill="#58A8F7" points="0 0 50 0 50 5 0 5" opacity=".499" transform="translate(100 123)"/>
    <g fill="#58A8F7" opacity=".197" transform="translate(10 133)">
      <polygon points="0 0 70 0 70 3 0 3" transform="translate(0 14)"/>
      <polygon points="0 0 70 0 70 3 0 3" transform="translate(0 7)"/>
      <polygon points="0 0 70 0 70 3 0 3"/>
      <polygon points="0 0 42 0 42 3 0 3" transform="translate(0 21)"/>
    </g>
    <g fill="#58A8F7" opacity=".197" transform="translate(100 133)">
      <polygon points="0 0 70 0 70 3 0 3" transform="translate(0 14)"/>
      <polygon points="0 0 70 0 70 3 0 3" transform="translate(0 7)"/>
      <polygon points="0 0 70 0 70 3 0 3"/>
      <polygon points="0 0 42 0 42 3 0 3" transform="translate(0 21)"/>
    </g>
    <path fill="#0D87FF" d="M0,1.99201702 C0,0.891856397 0.894337654,0 1.99821383,0 L29.0017862,0 C30.1053692,0 31,0.900176167 31,1.99201702 L31,9.00798298 C31,10.1081436 30.1056623,11 29.0017862,11 L1.99821383,11 C0.894630804,11 0,10.0998238 0,9.00798298 L0,1.99201702 Z" opacity=".499" transform="translate(10 164)"/>
  </g>
</svg></g></g></g><rect x="-1" y="-1" rx="3" ry="3" width="182" height="230" fill="none" stroke="#A2CEF9" stroke-width="2"/><g transform="translate(0,206)"><g><text x="90" y="4" text-anchor="middle" font-family="Roboto,sans-serif" font-size="14px" fill="#52565f">Doctor Profile</text></g></g></g><g transform="translate(1254, 622)"><rect x="0" y="0" rx="2" ry="2" width="180" height="228" fill="#ffffff"/><g><g><g transform="translate( 0, 0 )"><svg xmlns="http://www.w3.org/2000/svg" width="180" height="185" viewBox="0 0 180 185">
  <g fill="none" fill-rule="evenodd">
    <path fill="#58A8F7" d="M0,2.99971296 C0,1.34301724 1.34537458,0 2.99263929,0 L177.007361,0 C178.66015,0 180,1.34382565 180,2.99971296 L180,185 L0,185 L0,2.99971296 Z" opacity=".097"/>
    <path fill="#58A8F7" d="M0,3.00947762 C0,1.34738902 1.34537458,0 2.99263929,0 L177.007361,0 C178.66015,0 180,1.33663106 180,3.00947762 L180,16 L0,16 L0,3.00947762 Z" opacity=".197"/>
    <path fill="#0D87FF" d="M2.5,5 C1.11928813,5 0,3.88071187 0,2.5 C0,1.11928813 1.11928813,0 2.5,0 C3.88071187,0 5,1.11928813 5,2.5 C5,3.88071187 3.88071187,5 2.5,5 Z M10.5,5 C9.11928813,5 8,3.88071187 8,2.5 C8,1.11928813 9.11928813,0 10.5,0 C11.8807119,0 13,1.11928813 13,2.5 C13,3.88071187 11.8807119,5 10.5,5 Z M18.5,5 C17.1192881,5 16,3.88071187 16,2.5 C16,1.11928813 17.1192881,0 18.5,0 C19.8807119,0 21,1.11928813 21,2.5 C21,3.88071187 19.8807119,5 18.5,5 Z" opacity=".499" transform="translate(5 6)"/>
    <path fill="#FFF" d="M3.8458278,-1.55376046e-16 L126.154172,1.55376046e-16 C127.49145,-9.02779573e-17 127.97638,0.139238417 128.465269,0.400699056 C128.954157,0.662159695 129.33784,1.04584256 129.599301,1.53473144 C129.860762,2.02362033 130,2.50854969 130,3.8458278 L130,135.154172 C130,136.49145 129.860762,136.97638 129.599301,137.465269 C129.33784,137.954157 128.954157,138.33784 128.465269,138.599301 C127.97638,138.860762 127.49145,139 126.154172,139 L3.8458278,139 C2.50854969,139 2.02362033,138.860762 1.53473144,138.599301 C1.04584256,138.33784 0.662159695,137.954157 0.400699056,137.465269 C0.139238417,136.97638 6.72152345e-15,136.49145 6.55775412e-15,135.154172 L1.03584031e-16,3.8458278 C-6.01853049e-17,2.50854969 0.139238417,2.02362033 0.400699056,1.53473144 C0.662159695,1.04584256 1.04584256,0.662159695 1.53473144,0.400699056 C2.02362033,0.139238417 2.50854969,9.02779573e-17 3.8458278,-1.55376046e-16 Z" transform="translate(25 28)"/>
    <polygon fill="#0D87FF" points="2.749 6.529 0 9.558 15.08 24 34 2.798 31.028 0 14.856 18.123" transform="translate(73 38)"/>
    <polygon fill="#58A8F7" points="0 0 50 0 50 5 0 5" opacity=".499" transform="translate(65 69)"/>
    <path fill="#0D87FF" d="M0,1.99201702 C0,0.891856397 0.89599229,0 1.99926044,0 L49.0007396,0 C50.1049006,0 51,0.900176167 51,1.99201702 L51,9.00798298 C51,10.1081436 50.1040077,11 49.0007396,11 L1.99926044,11 C0.895099388,11 0,10.0998238 0,9.00798298 L0,1.99201702 Z" opacity=".499" transform="translate(65 146)"/>
    <polygon fill="#58A8F7" points="0 0 29 0 29 5 0 5" opacity=".499" transform="translate(35 87)"/>
    <polygon fill="#58A8F7" points="0 0 22 0 22 3 0 3" opacity=".197" transform="translate(79 89)"/>
    <polygon fill="#58A8F7" points="0 0 29 0 29 3 0 3" opacity=".197" transform="translate(116 89)"/>
    <polygon fill="#58A8F7" points="0 0 29 0 29 5 0 5" opacity=".499" transform="translate(35 102)"/>
    <polygon fill="#58A8F7" points="0 0 22 0 22 3 0 3" opacity=".197" transform="translate(79 104)"/>
    <polygon fill="#58A8F7" points="0 0 29 0 29 3 0 3" opacity=".197" transform="translate(116 104)"/>
    <polygon fill="#58A8F7" points="0 0 29 0 29 5 0 5" opacity=".499" transform="translate(35 117)"/>
    <polygon fill="#58A8F7" points="0 0 19 0 19 5 0 5" opacity=".499" transform="translate(116 132)"/>
    <polygon fill="#58A8F7" points="0 0 22 0 22 3 0 3" opacity=".197" transform="translate(79 119)"/>
    <polygon fill="#58A8F7" points="0 0 29 0 29 3 0 3" opacity=".197" transform="translate(116 119)"/>
  </g>
</svg></g></g></g><rect x="-1" y="-1" rx="3" ry="3" width="182" height="230" fill="none" stroke="#A2CEF9" stroke-width="2"/><g transform="translate(0,206)"><g><text x="90" y="4" text-anchor="middle" font-family="Roboto,sans-serif" font-size="14px" fill="#52565f">Appointement</text></g></g></g><g transform="translate(1030, 622)"><rect x="0" y="0" rx="2" ry="2" width="180" height="228" fill="#ffffff"/><g><g><g transform="translate( 0, 0 )"><svg xmlns="http://www.w3.org/2000/svg" width="180" height="185" viewBox="0 0 180 185">
  <g fill="none" fill-rule="evenodd">
    <path fill="#58A8F7" d="M0,2.99971296 C0,1.34301724 1.34537458,0 2.99263929,0 L177.007361,0 C178.66015,0 180,1.34382565 180,2.99971296 L180,185 L0,185 L0,2.99971296 Z" opacity=".097"/>
    <path fill="#58A8F7" d="M0,3.00947762 C0,1.34738902 1.34537458,0 2.99263929,0 L177.007361,0 C178.66015,0 180,1.33663106 180,3.00947762 L180,16 L0,16 L0,3.00947762 Z" opacity=".197"/>
    <path fill="#0D87FF" d="M2.5,5 C1.11928813,5 0,3.88071187 0,2.5 C0,1.11928813 1.11928813,0 2.5,0 C3.88071187,0 5,1.11928813 5,2.5 C5,3.88071187 3.88071187,5 2.5,5 Z M10.5,5 C9.11928813,5 8,3.88071187 8,2.5 C8,1.11928813 9.11928813,0 10.5,0 C11.8807119,0 13,1.11928813 13,2.5 C13,3.88071187 11.8807119,5 10.5,5 Z M18.5,5 C17.1192881,5 16,3.88071187 16,2.5 C16,1.11928813 17.1192881,0 18.5,0 C19.8807119,0 21,1.11928813 21,2.5 C21,3.88071187 19.8807119,5 18.5,5 Z" opacity=".499" transform="translate(5 6)"/>
    <path fill="#58A8F7" d="M3.8458278,-1.55376046e-16 L107.154172,1.55376046e-16 C108.49145,-9.02779573e-17 108.97638,0.139238417 109.465269,0.400699056 C109.954157,0.662159695 110.33784,1.04584256 110.599301,1.53473144 C110.860762,2.02362033 111,2.50854969 111,3.8458278 L111,81.1541722 C111,82.4914503 110.860762,82.9763797 110.599301,83.4652686 C110.33784,83.9541574 109.954157,84.3378403 109.465269,84.5993009 C108.97638,84.8607616 108.49145,85 107.154172,85 L3.8458278,85 C2.50854969,85 2.02362033,84.8607616 1.53473144,84.5993009 C1.04584256,84.3378403 0.662159695,83.9541574 0.400699056,83.4652686 C0.139238417,82.9763797 6.01853049e-17,82.4914503 -1.03584031e-16,81.1541722 L1.03584031e-16,3.8458278 C-6.01853049e-17,2.50854969 0.139238417,2.02362033 0.400699056,1.53473144 C0.662159695,1.04584256 1.04584256,0.662159695 1.53473144,0.400699056 C2.02362033,0.139238417 2.50854969,9.02779573e-17 3.8458278,-1.55376046e-16 Z" opacity=".197" transform="translate(35 54)"/>
    <g transform="translate(45 64)">
      <g transform="translate(0 6)">
        <rect width="91" height="11" fill="#58A8F7" opacity=".499" rx="2"/>
        <rect width="89" height="9" x="1" y="1" fill="#FFF" rx="1"/>
        <polygon fill="#58A8F7" points="0 0 53 0 53 3 0 3" opacity=".197" transform="translate(4 4)"/>
        <polygon fill="#0D87FF" points="2.5 3 0 0 5 0" transform="translate(81 4)"/>
      </g>
      <polygon fill="#58A8F7" points="0 0 32 0 32 3 0 3" opacity=".197"/>
    </g>
    <g transform="translate(45 91)">
      <g transform="translate(0 6)">
        <rect width="91" height="11" fill="#58A8F7" opacity=".499" rx="2"/>
        <rect width="89" height="9" x="1" y="1" fill="#FFF" rx="1"/>
      </g>
      <polygon fill="#58A8F7" points="0 0 20 0 20 3 0 3" opacity=".197"/>
    </g>
    <path fill="#0D87FF" d="M0,1.99201702 C0,0.891856397 0.900658965,0 2.00671997,0 L88.99328,0 C90.1015609,0 91,0.900176167 91,1.99201702 L91,9.00798298 C91,10.1081436 90.099341,11 88.99328,11 L2.00671997,11 C0.898439133,11 0,10.0998238 0,9.00798298 L0,1.99201702 Z" opacity=".499" transform="translate(45 118)"/>
    <polygon fill="#58A8F7" points="0 0 50 0 50 8 0 8" opacity=".499" transform="translate(65 36)"/>
  </g>
</svg></g></g></g><rect x="-1" y="-1" rx="3" ry="3" width="182" height="230" fill="none" stroke="#A2CEF9" stroke-width="2"/><g transform="translate(0,206)"><g><text x="90" y="4" text-anchor="middle" font-family="Roboto,sans-serif" font-size="14px" fill="#52565f">Login</text></g></g></g><g transform="translate(1030, 1006)"><rect x="0" y="0" rx="2" ry="2" width="180" height="228" fill="#ffffff"/><g><g><g transform="translate( 0, 0 )"><svg xmlns="http://www.w3.org/2000/svg" width="180" height="185" viewBox="0 0 180 185">
  <g fill="none" fill-rule="evenodd">
    <path fill="#58A8F7" d="M0,2.99971296 C0,1.34301724 1.34537458,0 2.99263929,0 L177.007361,0 C178.66015,0 180,1.34382565 180,2.99971296 L180,185 L0,185 L0,2.99971296 Z" opacity=".097"/>
    <path fill="#58A8F7" d="M0,3.00947762 C0,1.34738902 1.34537458,0 2.99263929,0 L177.007361,0 C178.66015,0 180,1.33663106 180,3.00947762 L180,16 L0,16 L0,3.00947762 Z" opacity=".197"/>
    <path fill="#0D87FF" d="M2.5,5 C1.11928813,5 0,3.88071187 0,2.5 C0,1.11928813 1.11928813,0 2.5,0 C3.88071187,0 5,1.11928813 5,2.5 C5,3.88071187 3.88071187,5 2.5,5 Z M10.5,5 C9.11928813,5 8,3.88071187 8,2.5 C8,1.11928813 9.11928813,0 10.5,0 C11.8807119,0 13,1.11928813 13,2.5 C13,3.88071187 11.8807119,5 10.5,5 Z M18.5,5 C17.1192881,5 16,3.88071187 16,2.5 C16,1.11928813 17.1192881,0 18.5,0 C19.8807119,0 21,1.11928813 21,2.5 C21,3.88071187 19.8807119,5 18.5,5 Z" opacity=".499" transform="translate(5 6)"/>
    <path fill="#58A8F7" d="M3.8458278,-1.55376046e-16 L107.154172,1.55376046e-16 C108.49145,-9.02779573e-17 108.97638,0.139238417 109.465269,0.400699056 C109.954157,0.662159695 110.33784,1.04584256 110.599301,1.53473144 C110.860762,2.02362033 111,2.50854969 111,3.8458278 L111,108.154172 C111,109.49145 110.860762,109.97638 110.599301,110.465269 C110.33784,110.954157 109.954157,111.33784 109.465269,111.599301 C108.97638,111.860762 108.49145,112 107.154172,112 L3.8458278,112 C2.50854969,112 2.02362033,111.860762 1.53473144,111.599301 C1.04584256,111.33784 0.662159695,110.954157 0.400699056,110.465269 C0.139238417,109.97638 6.01853049e-17,109.49145 -1.03584031e-16,108.154172 L1.03584031e-16,3.8458278 C-6.01853049e-17,2.50854969 0.139238417,2.02362033 0.400699056,1.53473144 C0.662159695,1.04584256 1.04584256,0.662159695 1.53473144,0.400699056 C2.02362033,0.139238417 2.50854969,9.02779573e-17 3.8458278,-1.55376046e-16 Z" opacity=".197" transform="translate(35 54)"/>
    <g transform="translate(45 64)">
      <g transform="translate(0 6)">
        <rect width="91" height="11" fill="#58A8F7" opacity=".499" rx="2"/>
        <rect width="89" height="9" x="1" y="1" fill="#FFF" rx="1"/>
        <polygon fill="#58A8F7" points="0 0 53 0 53 3 0 3" opacity=".197" transform="translate(4 4)"/>
        <polygon fill="#0D87FF" points="2.5 3 0 0 5 0" transform="translate(81 4)"/>
      </g>
      <polygon fill="#58A8F7" points="0 0 32 0 32 3 0 3" opacity=".197"/>
    </g>
    <g transform="translate(45 91)">
      <g transform="translate(0 6)">
        <rect width="91" height="11" fill="#58A8F7" opacity=".499" rx="2"/>
        <rect width="89" height="9" x="1" y="1" fill="#FFF" rx="1"/>
      </g>
      <polygon fill="#58A8F7" points="0 0 20 0 20 3 0 3" opacity=".197"/>
    </g>
    <g transform="translate(45 118)">
      <g transform="translate(0 6)">
        <rect width="91" height="11" fill="#58A8F7" opacity=".499" rx="2"/>
        <rect width="89" height="9" x="1" y="1" fill="#FFF" rx="1"/>
      </g>
      <polygon fill="#58A8F7" points="0 0 20 0 20 3 0 3" opacity=".197"/>
    </g>
    <rect width="31" height="11" fill="#58A8F7" opacity=".197" rx="2" transform="translate(105 145)"/>
    <path fill="#0D87FF" d="M0,1.99201702 C0,0.891856397 0.886195535,0 2.00630931,0 L52.9936907,0 C54.1017447,0 55,0.900176167 55,1.99201702 L55,9.00798298 C55,10.1081436 54.1138045,11 52.9936907,11 L2.00630931,11 C0.898255275,11 0,10.0998238 0,9.00798298 L0,1.99201702 Z" opacity=".499" transform="translate(45 145)"/>
    <polygon fill="#58A8F7" points="0 0 50 0 50 8 0 8" opacity=".499" transform="translate(65 36)"/>
  </g>
</svg></g></g></g><rect x="-1" y="-1" rx="3" ry="3" width="182" height="230" fill="none" stroke="#A2CEF9" stroke-width="2"/><g transform="translate(0,206)"><g><text x="90" y="4" text-anchor="middle" font-family="Roboto,sans-serif" font-size="14px" fill="#52565f">Signup</text></g></g></g><g transform="translate(358, 590)"><rect x="0" y="0" rx="2" ry="2" width="180" height="228" fill="#ffffff"/><g><g><g transform="translate( 0, 0 )"><svg xmlns="http://www.w3.org/2000/svg" xmlns:xlink="http://www.w3.org/1999/xlink" width="180" height="185" viewBox="0 0 180 185">
  <defs>
    <path id="onabil1f9nj-lk-a" d="M0,1.99729162 C0,0.894217919 0.899814069,0 1.99402962,0 L158.00597,0 C159.107243,0 160,0.891539827 160,1.99729162 L160,38.0027084 C160,39.1057821 159.100186,40 158.00597,40 L1.99402962,40 C0.89275747,40 0,39.1084602 0,38.0027084 L0,1.99729162 Z"/>
    <circle id="onabil1f9nj-lk-c" cx="18" cy="18" r="18"/>
  </defs>
  <g fill="none" fill-rule="evenodd">
    <path fill="#58A8F7" d="M0,2.99971296 C0,1.34301724 1.34537458,0 2.99263929,0 L177.007361,0 C178.66015,0 180,1.34382565 180,2.99971296 L180,185 L0,185 L0,2.99971296 Z" opacity=".097"/>
    <g transform="translate(10 26)">
      <path fill="#58A8F7" d="M0,1.99729162 C0,0.894217919 0.899814069,0 1.99402962,0 L158.00597,0 C159.107243,0 160,0.891539827 160,1.99729162 L160,38.0027084 C160,39.1057821 159.100186,40 158.00597,40 L1.99402962,40 C0.89275747,40 0,39.1084602 0,38.0027084 L0,1.99729162 Z" opacity=".197"/>
      <mask id="onabil1f9nj-lk-b" fill="#fff">
        <use xlink:href="#onabil1f9nj-lk-a"/>
      </mask>
      <path fill="#58A8F7" d="M123.544554,22 C147.292079,22 158.861386,29.6853933 182,40 C163.123762,40 82.3134379,40 59,40 C79.0940594,31.505618 99.7970297,22 123.544554,22 Z" mask="url(#onabil1f9nj-lk-b)" opacity=".197"/>
      <path fill="#0D87FF" d="M44.5,9 C69.8826643,9 86.3055556,23.781645 109,40 C79.2231422,40 7.11330049,40 -20,40 C1.92139189,23.781645 19.1173357,9 44.5,9 Z" mask="url(#onabil1f9nj-lk-b)" opacity=".198"/>
      <circle cx="94" cy="11" r="7" fill="#58A8F7" mask="url(#onabil1f9nj-lk-b)" opacity=".499"/>
    </g>
    <circle cx="18" cy="18" r="18" fill="#FFF" transform="translate(19 58)"/>
    <g fill="#58A8F7" opacity=".499" transform="translate(60 71)">
      <polygon points="0 0 50 0 50 5 0 5"/>
      <polygon points="0 0 30 0 30 5 0 5" transform="translate(0 9)"/>
    </g>
    <g transform="translate(19 58)">
      <mask id="onabil1f9nj-lk-d" fill="#fff">
        <use xlink:href="#onabil1f9nj-lk-c"/>
      </mask>
      <use fill="#58A8F7" opacity=".197" xlink:href="#onabil1f9nj-lk-c"/>
      <path fill="#0D87FF" d="M18,50.4 C9.3843579,50.4 2.4,43.4156421 2.4,34.8 C2.4,26.1843579 9.3843579,19.2 18,19.2 C26.6156421,19.2 33.6,26.1843579 33.6,34.8 C33.6,43.4156421 26.6156421,50.4 18,50.4 Z M18,16.8 C14.6862915,16.8 12,14.1137085 12,10.8 C12,7.4862915 14.6862915,4.8 18,4.8 C21.3137085,4.8 24,7.4862915 24,10.8 C24,14.1137085 21.3137085,16.8 18,16.8 Z" mask="url(#onabil1f9nj-lk-d)" opacity=".499"/>
    </g>
    <path fill="#58A8F7" d="M0,3.00947762 C0,1.34738902 1.34537458,0 2.99263929,0 L177.007361,0 C178.66015,0 180,1.33663106 180,3.00947762 L180,16 L0,16 L0,3.00947762 Z" opacity=".197"/>
    <path fill="#0D87FF" d="M2.5,5 C1.11928813,5 0,3.88071187 0,2.5 C0,1.11928813 1.11928813,0 2.5,0 C3.88071187,0 5,1.11928813 5,2.5 C5,3.88071187 3.88071187,5 2.5,5 Z M10.5,5 C9.11928813,5 8,3.88071187 8,2.5 C8,1.11928813 9.11928813,0 10.5,0 C11.8807119,0 13,1.11928813 13,2.5 C13,3.88071187 11.8807119,5 10.5,5 Z M18.5,5 C17.1192881,5 16,3.88071187 16,2.5 C16,1.11928813 17.1192881,0 18.5,0 C19.8807119,0 21,1.11928813 21,2.5 C21,3.88071187 19.8807119,5 18.5,5 Z" opacity=".499" transform="translate(5 6)"/>
    <g transform="translate(10 104)">
      <g transform="translate(0 6)">
        <rect width="91" height="11" fill="#58A8F7" opacity=".499" rx="2"/>
        <rect width="89" height="9" x="1" y="1" fill="#FFF" rx="1"/>
        <polygon fill="#58A8F7" points="0 0 53 0 53 3 0 3" opacity=".197" transform="translate(4 4)"/>
        <polygon fill="#0D87FF" points="2.5 3 0 0 5 0" transform="translate(81 4)"/>
      </g>
      <polygon fill="#58A8F7" points="0 0 32 0 32 3 0 3" opacity=".197"/>
    </g>
    <g transform="translate(10 153)">
      <g transform="translate(0 6)">
        <rect width="91" height="11" fill="#58A8F7" opacity=".499" rx="2"/>
        <rect width="89" height="9" x="1" y="1" fill="#FFF" rx="1"/>
        <polygon fill="#58A8F7" points="0 0 53 0 53 3 0 3" opacity=".197" transform="translate(4 4)"/>
        <polygon fill="#0D87FF" points="2.5 3 0 0 5 0" transform="translate(81 4)"/>
      </g>
      <polygon fill="#58A8F7" points="0 0 32 0 32 3 0 3" opacity=".197"/>
    </g>
    <g transform="translate(10 126)">
      <g transform="translate(0 6)">
        <rect width="91" height="11" fill="#58A8F7" opacity=".499" rx="2"/>
        <rect width="89" height="9" x="1" y="1" fill="#FFF" rx="1"/>
        <polygon fill="#58A8F7" points="0 0 53 0 53 3 0 3" opacity=".197" transform="translate(4 4)"/>
        <polygon fill="#0D87FF" points="2.5 3 0 0 5 0" transform="translate(81 4)"/>
      </g>
      <polygon fill="#58A8F7" points="0 0 32 0 32 3 0 3" opacity=".197"/>
    </g>
  </g>
</svg></g></g></g><rect x="-1" y="-1" rx="3" ry="3" width="182" height="230" fill="none" stroke="#A2CEF9" stroke-width="2"/><g transform="translate(0,206)"><g><text x="90" y="4" text-anchor="middle" font-family="Roboto,sans-serif" font-size="14px" fill="#52565f">Profile</text></g></g></g><g transform="translate(358, 846)"><rect x="0" y="0" rx="2" ry="2" width="180" height="228" fill="#ffffff"/><g><g><g transform="translate( 0, 0 )"><svg xmlns="http://www.w3.org/2000/svg" xmlns:xlink="http://www.w3.org/1999/xlink" width="180" height="185" viewBox="0 0 180 185">
  <defs>
    <path id="uaa1uu18aad-search_results-a" d="M0,1.99508929 C0,0.893231902 0.897026226,0 2.00494659,0 L21.9950534,0 C23.1023548,0 24,0.892622799 24,1.99508929 L24,16.0049107 C24,17.1067681 23.1029738,18 21.9950534,18 L2.00494659,18 C0.897645164,18 0,17.1073772 0,16.0049107 L0,1.99508929 Z"/>
    <path id="uaa1uu18aad-search_results-c" d="M0,1.99508929 C0,0.893231902 0.897026226,0 2.00494659,0 L21.9950534,0 C23.1023548,0 24,0.892622799 24,1.99508929 L24,16.0049107 C24,17.1067681 23.1029738,18 21.9950534,18 L2.00494659,18 C0.897645164,18 0,17.1073772 0,16.0049107 L0,1.99508929 Z"/>
    <path id="uaa1uu18aad-search_results-e" d="M0,1.99508929 C0,0.893231902 0.897026226,0 2.00494659,0 L21.9950534,0 C23.1023548,0 24,0.892622799 24,1.99508929 L24,16.0049107 C24,17.1067681 23.1029738,18 21.9950534,18 L2.00494659,18 C0.897645164,18 0,17.1073772 0,16.0049107 L0,1.99508929 Z"/>
  </defs>
  <g fill="none" fill-rule="evenodd">
    <path fill="#58A8F7" d="M0,2.99971296 C0,1.34301724 1.34537458,0 2.99263929,0 L177.007361,0 C178.66015,0 180,1.34382565 180,2.99971296 L180,185 L0,185 L0,2.99971296 Z" opacity=".097"/>
    <path fill="#58A8F7" d="M0,3.00947762 C0,1.34738902 1.34537458,0 2.99263929,0 L177.007361,0 C178.66015,0 180,1.33663106 180,3.00947762 L180,16 L0,16 L0,3.00947762 Z" opacity=".197"/>
    <path fill="#0D87FF" d="M2.5,5 C1.11928813,5 0,3.88071187 0,2.5 C0,1.11928813 1.11928813,0 2.5,0 C3.88071187,0 5,1.11928813 5,2.5 C5,3.88071187 3.88071187,5 2.5,5 Z M10.5,5 C9.11928813,5 8,3.88071187 8,2.5 C8,1.11928813 9.11928813,0 10.5,0 C11.8807119,0 13,1.11928813 13,2.5 C13,3.88071187 11.8807119,5 10.5,5 Z M18.5,5 C17.1192881,5 16,3.88071187 16,2.5 C16,1.11928813 17.1192881,0 18.5,0 C19.8807119,0 21,1.11928813 21,2.5 C21,3.88071187 19.8807119,5 18.5,5 Z" opacity=".499" transform="translate(5 6)"/>
    <g transform="translate(20 36)">
      <g transform="translate(0 6)">
        <rect width="140" height="11" fill="#58A8F7" opacity=".499" rx="2"/>
        <rect width="138" height="9" x="1" y="1" fill="#FFF" rx="1"/>
        <polygon fill="#58A8F7" points="0 0 82 0 82 3 0 3" opacity=".197" transform="translate(4 4)"/>
        <polygon fill="#0D87FF" points="2.5 3 0 0 5 0" transform="translate(130 4)"/>
      </g>
      <polygon fill="#58A8F7" points="0 0 49 0 49 3 0 3" opacity=".197"/>
    </g>
    <g transform="translate(20 73)">
      <path fill="#58A8F7" d="M0,1.99508929 C0,0.893231902 0.897026226,0 2.00494659,0 L21.9950534,0 C23.1023548,0 24,0.892622799 24,1.99508929 L24,16.0049107 C24,17.1067681 23.1029738,18 21.9950534,18 L2.00494659,18 C0.897645164,18 0,17.1073772 0,16.0049107 L0,1.99508929 Z" opacity=".197"/>
      <mask id="uaa1uu18aad-search_results-b" fill="#fff">
        <use xlink:href="#uaa1uu18aad-search_results-a"/>
      </mask>
      <path fill="#58A8F7" d="M20.5714286,9.81818182 C25.2050919,9.81818182 28.0565771,13.3115424 32.5714286,18 C28.8882603,18 13.1203921,18 8.57142857,18 C12.4922207,14.1389173 15.9377652,9.81818182 20.5714286,9.81818182 Z" mask="url(#uaa1uu18aad-search_results-b)" opacity=".197"/>
      <path fill="#0D87FF" d="M3.42857143,8.18181818 C8.31958315,8.18181818 11.9126984,12.8633949 16.2857143,18 C10.5479809,18 -3.34693878,18 -8.57142857,18 C-4.34737299,12.8633949 -1.4624403,8.18181818 3.42857143,8.18181818 Z" mask="url(#uaa1uu18aad-search_results-b)" opacity=".198"/>
      <circle cx="12.857" cy="5.727" r="3" fill="#58A8F7" mask="url(#uaa1uu18aad-search_results-b)" opacity=".499"/>
    </g>
    <g transform="translate(20 106)">
      <path fill="#58A8F7" d="M0,1.99508929 C0,0.893231902 0.897026226,0 2.00494659,0 L21.9950534,0 C23.1023548,0 24,0.892622799 24,1.99508929 L24,16.0049107 C24,17.1067681 23.1029738,18 21.9950534,18 L2.00494659,18 C0.897645164,18 0,17.1073772 0,16.0049107 L0,1.99508929 Z" opacity=".197"/>
      <mask id="uaa1uu18aad-search_results-d" fill="#fff">
        <use xlink:href="#uaa1uu18aad-search_results-c"/>
      </mask>
      <path fill="#58A8F7" d="M20.5714286,9.81818182 C25.2050919,9.81818182 28.0565771,13.3115424 32.5714286,18 C28.8882603,18 13.1203921,18 8.57142857,18 C12.4922207,14.1389173 15.9377652,9.81818182 20.5714286,9.81818182 Z" mask="url(#uaa1uu18aad-search_results-d)" opacity=".197"/>
      <path fill="#0D87FF" d="M3.42857143,8.18181818 C8.31958315,8.18181818 11.9126984,12.8633949 16.2857143,18 C10.5479809,18 -3.34693878,18 -8.57142857,18 C-4.34737299,12.8633949 -1.4624403,8.18181818 3.42857143,8.18181818 Z" mask="url(#uaa1uu18aad-search_results-d)" opacity=".198"/>
      <circle cx="12.857" cy="5.727" r="3" fill="#58A8F7" mask="url(#uaa1uu18aad-search_results-d)" opacity=".499"/>
    </g>
    <polygon fill="#58A8F7" points="0 0 50 0 50 8 0 8" opacity=".499" transform="translate(54 73)"/>
    <polygon fill="#58A8F7" points="0 0 50 0 50 8 0 8" opacity=".499" transform="translate(54 106)"/>
    <g fill="#58A8F7" opacity=".197" transform="translate(54 86)">
      <polygon points="0 0 70 0 70 3 0 3"/>
      <polygon points="0 0 42 0 42 3 0 3" transform="translate(0 7)"/>
    </g>
    <g fill="#58A8F7" opacity=".197" transform="translate(54 119)">
      <polygon points="0 0 70 0 70 3 0 3"/>
      <polygon points="0 0 42 0 42 3 0 3" transform="translate(0 7)"/>
    </g>
    <g fill="#58A8F7" opacity=".197" transform="translate(54 152)">
      <polygon points="0 0 70 0 70 3 0 3"/>
      <polygon points="0 0 42 0 42 3 0 3" transform="translate(0 7)"/>
    </g>
    <g transform="translate(20 139)">
      <path fill="#58A8F7" d="M0,1.99508929 C0,0.893231902 0.897026226,0 2.00494659,0 L21.9950534,0 C23.1023548,0 24,0.892622799 24,1.99508929 L24,16.0049107 C24,17.1067681 23.1029738,18 21.9950534,18 L2.00494659,18 C0.897645164,18 0,17.1073772 0,16.0049107 L0,1.99508929 Z" opacity=".197"/>
      <mask id="uaa1uu18aad-search_results-f" fill="#fff">
        <use xlink:href="#uaa1uu18aad-search_results-e"/>
      </mask>
      <path fill="#58A8F7" d="M20.5714286,9.81818182 C25.2050919,9.81818182 28.0565771,13.3115424 32.5714286,18 C28.8882603,18 13.1203921,18 8.57142857,18 C12.4922207,14.1389173 15.9377652,9.81818182 20.5714286,9.81818182 Z" mask="url(#uaa1uu18aad-search_results-f)" opacity=".197"/>
      <path fill="#0D87FF" d="M3.42857143,8.18181818 C8.31958315,8.18181818 11.9126984,12.8633949 16.2857143,18 C10.5479809,18 -3.34693878,18 -8.57142857,18 C-4.34737299,12.8633949 -1.4624403,8.18181818 3.42857143,8.18181818 Z" mask="url(#uaa1uu18aad-search_results-f)" opacity=".198"/>
      <circle cx="12.857" cy="5.727" r="3" fill="#58A8F7" mask="url(#uaa1uu18aad-search_results-f)" opacity=".499"/>
    </g>
    <polygon fill="#58A8F7" points="0 0 50 0 50 8 0 8" opacity=".499" transform="translate(54 139)"/>
  </g>
</svg></g></g></g><rect x="-1" y="-1" rx="3" ry="3" width="182" height="230" fill="none" stroke="#A2CEF9" stroke-width="2"/><g transform="translate(0,206)"><g><text x="90" y="4" text-anchor="middle" font-family="Roboto,sans-serif" font-size="14px" fill="#52565f">Appointements</text></g></g></g><g transform="translate(582, 846)"><rect x="0" y="0" rx="2" ry="2" width="180" height="228" fill="#ffffff"/><g><g><g transform="translate( 0, 0 )"><svg xmlns="http://www.w3.org/2000/svg" xmlns:xlink="http://www.w3.org/1999/xlink" width="180" height="185" viewBox="0 0 180 185">
  <defs>
    <rect id="7tvup8vn4g5-video_player-a" width="160" height="99" rx="2"/>
  </defs>
  <g fill="none" fill-rule="evenodd">
    <path fill="#58A8F7" d="M0,2.99971296 C0,1.34301724 1.34537458,0 2.99263929,0 L177.007361,0 C178.66015,0 180,1.34382565 180,2.99971296 L180,185 L0,185 L0,2.99971296 Z" opacity=".097"/>
    <path fill="#58A8F7" d="M0,3.00947762 C0,1.34738902 1.34537458,0 2.99263929,0 L177.007361,0 C178.66015,0 180,1.33663106 180,3.00947762 L180,16 L0,16 L0,3.00947762 Z" opacity=".197"/>
    <path fill="#0D87FF" d="M2.5,5 C1.11928813,5 0,3.88071187 0,2.5 C0,1.11928813 1.11928813,0 2.5,0 C3.88071187,0 5,1.11928813 5,2.5 C5,3.88071187 3.88071187,5 2.5,5 Z M10.5,5 C9.11928813,5 8,3.88071187 8,2.5 C8,1.11928813 9.11928813,0 10.5,0 C11.8807119,0 13,1.11928813 13,2.5 C13,3.88071187 11.8807119,5 10.5,5 Z M18.5,5 C17.1192881,5 16,3.88071187 16,2.5 C16,1.11928813 17.1192881,0 18.5,0 C19.8807119,0 21,1.11928813 21,2.5 C21,3.88071187 19.8807119,5 18.5,5 Z" opacity=".499" transform="translate(5 6)"/>
    <g transform="translate(10 63)">
      <rect width="160" height="99" fill="#58A8F7" opacity=".197" rx="2"/>
      <mask id="7tvup8vn4g5-video_player-b" fill="#fff">
        <use xlink:href="#7tvup8vn4g5-video_player-a"/>
      </mask>
      <use fill="#58A8F7" opacity="0" xlink:href="#7tvup8vn4g5-video_player-a"/>
      <path fill="#58A8F7" d="M123.544554,45.8780488 C147.292079,45.8780488 158.861386,68.5593313 182,99 C163.123762,99 82.3134379,99 59,99 C79.0940594,73.931214 99.7970297,45.8780488 123.544554,45.8780488 Z" mask="url(#7tvup8vn4g5-video_player-b)" opacity=".197"/>
      <path fill="#0D87FF" d="M44.5,37.4268293 C69.8826643,37.4268293 86.3055556,66.7865954 109,99 C79.2231422,99 7.11330049,99 -20,99 C1.92139189,66.7865954 19.1173357,37.4268293 44.5,37.4268293 Z" mask="url(#7tvup8vn4g5-video_player-b)" opacity=".198"/>
      <circle cx="87" cy="26.561" r="9" fill="#58A8F7" mask="url(#7tvup8vn4g5-video_player-b)" opacity=".499"/>
      <g transform="translate(56 21)">
        <circle cx="24.5" cy="24.5" r="24.5" fill="#FFF"/>
        <polygon fill="#0D87FF" points="17 10.5 0 21 0 0" transform="translate(19 14)"/>
      </g>
      <rect width="130" height="6" x="25" y="88" fill="#58A8F7" opacity=".197"/>
      <rect width="60" height="6" x="25" y="88" fill="#0D87FF"/>
      <rect width="2" height="10" x="85" y="86" fill="#FFF"/>
      <polygon fill="#0D87FF" points="6 4 0 8 0 0" transform="translate(10 87)"/>
    </g>
    <polygon fill="#58A8F7" points="0 0 50 0 50 8 0 8" opacity=".499" transform="translate(10 29)"/>
    <g fill="#58A8F7" opacity=".197" transform="translate(10 42)">
      <polygon points="0 0 70 0 70 3 0 3"/>
      <polygon points="0 0 42 0 42 3 0 3" transform="translate(0 7)"/>
    </g>
  </g>
</svg></g></g></g><rect x="-1" y="-1" rx="3" ry="3" width="182" height="230" fill="none" stroke="#A2CEF9" stroke-width="2"/><g transform="translate(0,206)"><g><text x="90" y="4" text-anchor="middle" font-family="Roboto,sans-serif" font-size="14px" fill="#52565f">Video Chat</text></g></g></g><g transform="translate(22, 142)"><rect x="0" y="0" rx="2" ry="2" width="180" height="228" fill="#ffffff"/><g><g><g transform="translate( 0, 0 )"><svg xmlns="http://www.w3.org/2000/svg" width="180" height="185" viewBox="0 0 180 185">
  <g fill="none" fill-rule="evenodd">
    <path fill="#58A8F7" d="M0,2.99971296 C0,1.34301724 1.34537458,0 2.99263929,0 L177.007361,0 C178.66015,0 180,1.34382565 180,2.99971296 L180,185 L0,185 L0,2.99971296 Z" opacity=".097"/>
    <path fill="#58A8F7" d="M0,3.00947762 C0,1.34738902 1.34537458,0 2.99263929,0 L177.007361,0 C178.66015,0 180,1.33663106 180,3.00947762 L180,16 L0,16 L0,3.00947762 Z" opacity=".197"/>
    <path fill="#0D87FF" d="M2.5,5 C1.11928813,5 0,3.88071187 0,2.5 C0,1.11928813 1.11928813,0 2.5,0 C3.88071187,0 5,1.11928813 5,2.5 C5,3.88071187 3.88071187,5 2.5,5 Z M10.5,5 C9.11928813,5 8,3.88071187 8,2.5 C8,1.11928813 9.11928813,0 10.5,0 C11.8807119,0 13,1.11928813 13,2.5 C13,3.88071187 11.8807119,5 10.5,5 Z M18.5,5 C17.1192881,5 16,3.88071187 16,2.5 C16,1.11928813 17.1192881,0 18.5,0 C19.8807119,0 21,1.11928813 21,2.5 C21,3.88071187 19.8807119,5 18.5,5 Z" opacity=".499" transform="translate(5 6)"/>
    <path fill="#58A8F7" d="M3.8458278,-1.55376046e-16 L107.154172,1.55376046e-16 C108.49145,-9.02779573e-17 108.97638,0.139238417 109.465269,0.400699056 C109.954157,0.662159695 110.33784,1.04584256 110.599301,1.53473144 C110.860762,2.02362033 111,2.50854969 111,3.8458278 L111,81.1541722 C111,82.4914503 110.860762,82.9763797 110.599301,83.4652686 C110.33784,83.9541574 109.954157,84.3378403 109.465269,84.5993009 C108.97638,84.8607616 108.49145,85 107.154172,85 L3.8458278,85 C2.50854969,85 2.02362033,84.8607616 1.53473144,84.5993009 C1.04584256,84.3378403 0.662159695,83.9541574 0.400699056,83.4652686 C0.139238417,82.9763797 6.01853049e-17,82.4914503 -1.03584031e-16,81.1541722 L1.03584031e-16,3.8458278 C-6.01853049e-17,2.50854969 0.139238417,2.02362033 0.400699056,1.53473144 C0.662159695,1.04584256 1.04584256,0.662159695 1.53473144,0.400699056 C2.02362033,0.139238417 2.50854969,9.02779573e-17 3.8458278,-1.55376046e-16 Z" opacity=".197" transform="translate(35 54)"/>
    <g transform="translate(45 64)">
      <g transform="translate(0 6)">
        <rect width="91" height="11" fill="#58A8F7" opacity=".499" rx="2"/>
        <rect width="89" height="9" x="1" y="1" fill="#FFF" rx="1"/>
        <polygon fill="#58A8F7" points="0 0 53 0 53 3 0 3" opacity=".197" transform="translate(4 4)"/>
        <polygon fill="#0D87FF" points="2.5 3 0 0 5 0" transform="translate(81 4)"/>
      </g>
      <polygon fill="#58A8F7" points="0 0 32 0 32 3 0 3" opacity=".197"/>
    </g>
    <g transform="translate(45 91)">
      <g transform="translate(0 6)">
        <rect width="91" height="11" fill="#58A8F7" opacity=".499" rx="2"/>
        <rect width="89" height="9" x="1" y="1" fill="#FFF" rx="1"/>
      </g>
      <polygon fill="#58A8F7" points="0 0 20 0 20 3 0 3" opacity=".197"/>
    </g>
    <path fill="#0D87FF" d="M0,1.99201702 C0,0.891856397 0.900658965,0 2.00671997,0 L88.99328,0 C90.1015609,0 91,0.900176167 91,1.99201702 L91,9.00798298 C91,10.1081436 90.099341,11 88.99328,11 L2.00671997,11 C0.898439133,11 0,10.0998238 0,9.00798298 L0,1.99201702 Z" opacity=".499" transform="translate(45 118)"/>
    <polygon fill="#58A8F7" points="0 0 50 0 50 8 0 8" opacity=".499" transform="translate(65 36)"/>
  </g>
</svg></g></g></g><rect x="-1" y="-1" rx="3" ry="3" width="182" height="230" fill="none" stroke="#A2CEF9" stroke-width="2"/><g transform="translate(0,206)"><g><text x="90" y="4" text-anchor="middle" font-family="Roboto,sans-serif" font-size="14px" fill="#52565f">Login</text></g></g></g><g transform="translate(22, 590)"><rect x="0" y="0" rx="2" ry="2" width="180" height="228" fill="#ffffff"/><g><g><g transform="translate( 0, 0 )"><svg xmlns="http://www.w3.org/2000/svg" width="180" height="185" viewBox="0 0 180 185">
  <g fill="none" fill-rule="evenodd">
    <path fill="#58A8F7" d="M0,2.99971296 C0,1.34301724 1.34537458,0 2.99263929,0 L177.007361,0 C178.66015,0 180,1.34382565 180,2.99971296 L180,185 L0,185 L0,2.99971296 Z" opacity=".097"/>
    <path fill="#58A8F7" d="M0,3.00947762 C0,1.34738902 1.34537458,0 2.99263929,0 L177.007361,0 C178.66015,0 180,1.33663106 180,3.00947762 L180,16 L0,16 L0,3.00947762 Z" opacity=".197"/>
    <path fill="#0D87FF" d="M2.5,5 C1.11928813,5 0,3.88071187 0,2.5 C0,1.11928813 1.11928813,0 2.5,0 C3.88071187,0 5,1.11928813 5,2.5 C5,3.88071187 3.88071187,5 2.5,5 Z M10.5,5 C9.11928813,5 8,3.88071187 8,2.5 C8,1.11928813 9.11928813,0 10.5,0 C11.8807119,0 13,1.11928813 13,2.5 C13,3.88071187 11.8807119,5 10.5,5 Z M18.5,5 C17.1192881,5 16,3.88071187 16,2.5 C16,1.11928813 17.1192881,0 18.5,0 C19.8807119,0 21,1.11928813 21,2.5 C21,3.88071187 19.8807119,5 18.5,5 Z" opacity=".499" transform="translate(5 6)"/>
    <path fill="#58A8F7" d="M3.8458278,-1.55376046e-16 L107.154172,1.55376046e-16 C108.49145,-9.02779573e-17 108.97638,0.139238417 109.465269,0.400699056 C109.954157,0.662159695 110.33784,1.04584256 110.599301,1.53473144 C110.860762,2.02362033 111,2.50854969 111,3.8458278 L111,108.154172 C111,109.49145 110.860762,109.97638 110.599301,110.465269 C110.33784,110.954157 109.954157,111.33784 109.465269,111.599301 C108.97638,111.860762 108.49145,112 107.154172,112 L3.8458278,112 C2.50854969,112 2.02362033,111.860762 1.53473144,111.599301 C1.04584256,111.33784 0.662159695,110.954157 0.400699056,110.465269 C0.139238417,109.97638 6.01853049e-17,109.49145 -1.03584031e-16,108.154172 L1.03584031e-16,3.8458278 C-6.01853049e-17,2.50854969 0.139238417,2.02362033 0.400699056,1.53473144 C0.662159695,1.04584256 1.04584256,0.662159695 1.53473144,0.400699056 C2.02362033,0.139238417 2.50854969,9.02779573e-17 3.8458278,-1.55376046e-16 Z" opacity=".197" transform="translate(35 54)"/>
    <g transform="translate(45 64)">
      <g transform="translate(0 6)">
        <rect width="91" height="11" fill="#58A8F7" opacity=".499" rx="2"/>
        <rect width="89" height="9" x="1" y="1" fill="#FFF" rx="1"/>
        <polygon fill="#58A8F7" points="0 0 53 0 53 3 0 3" opacity=".197" transform="translate(4 4)"/>
        <polygon fill="#0D87FF" points="2.5 3 0 0 5 0" transform="translate(81 4)"/>
      </g>
      <polygon fill="#58A8F7" points="0 0 32 0 32 3 0 3" opacity=".197"/>
    </g>
    <g transform="translate(45 91)">
      <g transform="translate(0 6)">
        <rect width="91" height="11" fill="#58A8F7" opacity=".499" rx="2"/>
        <rect width="89" height="9" x="1" y="1" fill="#FFF" rx="1"/>
      </g>
      <polygon fill="#58A8F7" points="0 0 20 0 20 3 0 3" opacity=".197"/>
    </g>
    <g transform="translate(45 118)">
      <g transform="translate(0 6)">
        <rect width="91" height="11" fill="#58A8F7" opacity=".499" rx="2"/>
        <rect width="89" height="9" x="1" y="1" fill="#FFF" rx="1"/>
      </g>
      <polygon fill="#58A8F7" points="0 0 20 0 20 3 0 3" opacity=".197"/>
    </g>
    <rect width="31" height="11" fill="#58A8F7" opacity=".197" rx="2" transform="translate(105 145)"/>
    <path fill="#0D87FF" d="M0,1.99201702 C0,0.891856397 0.886195535,0 2.00630931,0 L52.9936907,0 C54.1017447,0 55,0.900176167 55,1.99201702 L55,9.00798298 C55,10.1081436 54.1138045,11 52.9936907,11 L2.00630931,11 C0.898255275,11 0,10.0998238 0,9.00798298 L0,1.99201702 Z" opacity=".499" transform="translate(45 145)"/>
    <polygon fill="#58A8F7" points="0 0 50 0 50 8 0 8" opacity=".499" transform="translate(65 36)"/>
  </g>
</svg></g></g></g><rect x="-1" y="-1" rx="3" ry="3" width="182" height="230" fill="none" stroke="#A2CEF9" stroke-width="2"/><g transform="translate(0,206)"><g><text x="90" y="4" text-anchor="middle" font-family="Roboto,sans-serif" font-size="14px" fill="#52565f">Signup</text></g></g></g><g transform="translate(134, 846)"><rect x="0" y="0" rx="2" ry="2" width="180" height="228" fill="#ffffff"/><g><g><g transform="translate( 0, 0 )"><svg xmlns="http://www.w3.org/2000/svg" xmlns:xlink="http://www.w3.org/1999/xlink" width="180" height="185" viewBox="0 0 180 185">
  <defs>
    <path id="tjz44ashtts-lk-a" d="M0,1.99729162 C0,0.894217919 0.899814069,0 1.99402962,0 L158.00597,0 C159.107243,0 160,0.891539827 160,1.99729162 L160,38.0027084 C160,39.1057821 159.100186,40 158.00597,40 L1.99402962,40 C0.89275747,40 0,39.1084602 0,38.0027084 L0,1.99729162 Z"/>
    <circle id="tjz44ashtts-lk-c" cx="18" cy="18" r="18"/>
  </defs>
  <g fill="none" fill-rule="evenodd">
    <path fill="#58A8F7" d="M0,2.99971296 C0,1.34301724 1.34537458,0 2.99263929,0 L177.007361,0 C178.66015,0 180,1.34382565 180,2.99971296 L180,185 L0,185 L0,2.99971296 Z" opacity=".097"/>
    <g transform="translate(10 26)">
      <path fill="#58A8F7" d="M0,1.99729162 C0,0.894217919 0.899814069,0 1.99402962,0 L158.00597,0 C159.107243,0 160,0.891539827 160,1.99729162 L160,38.0027084 C160,39.1057821 159.100186,40 158.00597,40 L1.99402962,40 C0.89275747,40 0,39.1084602 0,38.0027084 L0,1.99729162 Z" opacity=".197"/>
      <mask id="tjz44ashtts-lk-b" fill="#fff">
        <use xlink:href="#tjz44ashtts-lk-a"/>
      </mask>
      <path fill="#58A8F7" d="M123.544554,22 C147.292079,22 158.861386,29.6853933 182,40 C163.123762,40 82.3134379,40 59,40 C79.0940594,31.505618 99.7970297,22 123.544554,22 Z" mask="url(#tjz44ashtts-lk-b)" opacity=".197"/>
      <path fill="#0D87FF" d="M44.5,9 C69.8826643,9 86.3055556,23.781645 109,40 C79.2231422,40 7.11330049,40 -20,40 C1.92139189,23.781645 19.1173357,9 44.5,9 Z" mask="url(#tjz44ashtts-lk-b)" opacity=".198"/>
      <circle cx="94" cy="11" r="7" fill="#58A8F7" mask="url(#tjz44ashtts-lk-b)" opacity=".499"/>
    </g>
    <circle cx="18" cy="18" r="18" fill="#FFF" transform="translate(19 58)"/>
    <g fill="#58A8F7" opacity=".499" transform="translate(60 71)">
      <polygon points="0 0 50 0 50 5 0 5"/>
      <polygon points="0 0 30 0 30 5 0 5" transform="translate(0 9)"/>
    </g>
    <g transform="translate(19 58)">
      <mask id="tjz44ashtts-lk-d" fill="#fff">
        <use xlink:href="#tjz44ashtts-lk-c"/>
      </mask>
      <use fill="#58A8F7" opacity=".197" xlink:href="#tjz44ashtts-lk-c"/>
      <path fill="#0D87FF" d="M18,50.4 C9.3843579,50.4 2.4,43.4156421 2.4,34.8 C2.4,26.1843579 9.3843579,19.2 18,19.2 C26.6156421,19.2 33.6,26.1843579 33.6,34.8 C33.6,43.4156421 26.6156421,50.4 18,50.4 Z M18,16.8 C14.6862915,16.8 12,14.1137085 12,10.8 C12,7.4862915 14.6862915,4.8 18,4.8 C21.3137085,4.8 24,7.4862915 24,10.8 C24,14.1137085 21.3137085,16.8 18,16.8 Z" mask="url(#tjz44ashtts-lk-d)" opacity=".499"/>
    </g>
    <path fill="#58A8F7" d="M0,3.00947762 C0,1.34738902 1.34537458,0 2.99263929,0 L177.007361,0 C178.66015,0 180,1.33663106 180,3.00947762 L180,16 L0,16 L0,3.00947762 Z" opacity=".197"/>
    <path fill="#0D87FF" d="M2.5,5 C1.11928813,5 0,3.88071187 0,2.5 C0,1.11928813 1.11928813,0 2.5,0 C3.88071187,0 5,1.11928813 5,2.5 C5,3.88071187 3.88071187,5 2.5,5 Z M10.5,5 C9.11928813,5 8,3.88071187 8,2.5 C8,1.11928813 9.11928813,0 10.5,0 C11.8807119,0 13,1.11928813 13,2.5 C13,3.88071187 11.8807119,5 10.5,5 Z M18.5,5 C17.1192881,5 16,3.88071187 16,2.5 C16,1.11928813 17.1192881,0 18.5,0 C19.8807119,0 21,1.11928813 21,2.5 C21,3.88071187 19.8807119,5 18.5,5 Z" opacity=".499" transform="translate(5 6)"/>
    <g transform="translate(10 104)">
      <g transform="translate(0 6)">
        <rect width="91" height="11" fill="#58A8F7" opacity=".499" rx="2"/>
        <rect width="89" height="9" x="1" y="1" fill="#FFF" rx="1"/>
        <polygon fill="#58A8F7" points="0 0 53 0 53 3 0 3" opacity=".197" transform="translate(4 4)"/>
        <polygon fill="#0D87FF" points="2.5 3 0 0 5 0" transform="translate(81 4)"/>
      </g>
      <polygon fill="#58A8F7" points="0 0 32 0 32 3 0 3" opacity=".197"/>
    </g>
    <g transform="translate(10 153)">
      <g transform="translate(0 6)">
        <rect width="91" height="11" fill="#58A8F7" opacity=".499" rx="2"/>
        <rect width="89" height="9" x="1" y="1" fill="#FFF" rx="1"/>
        <polygon fill="#58A8F7" points="0 0 53 0 53 3 0 3" opacity=".197" transform="translate(4 4)"/>
        <polygon fill="#0D87FF" points="2.5 3 0 0 5 0" transform="translate(81 4)"/>
      </g>
      <polygon fill="#58A8F7" points="0 0 32 0 32 3 0 3" opacity=".197"/>
    </g>
    <g transform="translate(10 126)">
      <g transform="translate(0 6)">
        <rect width="91" height="11" fill="#58A8F7" opacity=".499" rx="2"/>
        <rect width="89" height="9" x="1" y="1" fill="#FFF" rx="1"/>
        <polygon fill="#58A8F7" points="0 0 53 0 53 3 0 3" opacity=".197" transform="translate(4 4)"/>
        <polygon fill="#0D87FF" points="2.5 3 0 0 5 0" transform="translate(81 4)"/>
      </g>
      <polygon fill="#58A8F7" points="0 0 32 0 32 3 0 3" opacity=".197"/>
    </g>
  </g>
</svg></g></g></g><rect x="-1" y="-1" rx="3" ry="3" width="182" height="230" fill="none" stroke="#A2CEF9" stroke-width="2"/><g transform="translate(0,206)"><g><text x="90" y="4" text-anchor="middle" font-family="Roboto,sans-serif" font-size="14px" fill="#52565f">Profile Settings</text></g></g></g><g transform="translate( 644, 28 )"><rect width="168" height="72" rx="36" ry="36" fill="#FFFFFF" stroke="#58A8F7" stroke-width="2"/><g transform="translate(8, 8)"><defs><rect id="m0wu15w6qkrect" x="0" y="0" width="56" height="56" rx="28" ry="28"/><clipPath id="m0wu15w6qkclip"><use xmlns:xlink="http://www.w3.org/1999/xlink" xlink:href="#m0wu15w6qkrect"/></clipPath></defs><g><g transform="translate( 0, 0 )"><svg xmlns="http://www.w3.org/2000/svg" width="56" height="56" viewBox="0 0 216 216" fill="none">
<g opacity="0.5">
<path fill-rule="evenodd" clip-rule="evenodd" d="M69.2102 47.6543C73.6017 60.4415 92.0956 64.3377 103.931 66.6351C111.088 68.0245 113.213 68.3104 113.213 74.8121C113.213 78.2827 111.509 81.8996 109.077 85.3539C108.079 86.7705 107.105 88.1535 106.402 89.4738C107.252 87.4965 108.337 85.5802 109.243 83.9797C109.905 82.8102 110.472 81.8091 110.782 81.0763C113.843 73.7889 74.1242 76.7938 74.1242 76.7938C74.1242 76.7938 76.145 69.0703 77.382 62.5653C72.3733 58.8951 68.8882 53.947 69.2102 47.6543Z" fill="#D6EBFF"/>
<path d="M106.402 89.4738C105.865 90.483 105.486 91.4557 105.375 92.3787C105.63 91.4155 105.988 90.4374 106.402 89.4738Z" fill="#D6EBFF"/>
<path d="M105.375 92.3787C105.185 93.9684 105.792 95.4109 107.759 96.6399C112.025 99.3071 113.289 95.691 114.654 91.79C115.813 88.4753 117.045 84.955 120.25 84.9088C124.099 84.8545 124.703 90.8749 124.787 96.8103C128.069 90.2239 137.641 80.3382 139.483 69.4836C141.803 55.9283 133.19 54.0206 133.19 54.0206C133.19 54.0206 140.928 52.3957 145.396 63.861C149.379 74.0807 141.667 87.9137 138.437 93.7056C138.044 94.4105 137.718 94.9963 137.487 95.4419C136.964 96.4512 136.397 97.8085 135.783 99.2789C133.739 104.172 134.844 106.704 129.351 110.194C129.351 110.194 128.632 125.72 127.852 143.601C123.358 146.094 120.25 105.208 120.25 95.5408C120.078 94.3852 119.408 95.2571 118.331 96.6592C116.672 98.8199 114.261 101.901 110.782 101.439C105.375 100.72 104.331 96.3288 105.375 92.3787Z" fill="#D6EBFF"/>
<path d="M88.6234 133.942C88.6234 133.942 99.9742 135.309 113.226 126.691C111.819 137.776 88.7566 149.451 88.7376 146.964C88.6996 142.598 88.6234 133.942 88.6234 133.942Z" fill="#D6EBFF"/>
<path d="M81.2087 142.175C47.2892 154.476 33.9608 183.31 33.9608 183.31C33.9608 183.31 65.2186 213.283 110.698 213.283C156.197 213.283 186.522 178.887 186.522 178.887C186.522 178.887 175.799 149.085 137.944 139.612C132.107 157.133 101.61 173.325 88.8139 167.592C69.3563 158.894 81.4222 147.233 86.456 142.369C88.3429 140.545 89.2417 139.676 87.1215 140.277C85.0871 140.846 83.11 141.492 81.2087 142.175Z" fill="#D6EBFF"/>
</g>
<ellipse opacity="0.1" cx="106.377" cy="107.202" rx="106.377" ry="106.205" fill="#58A8F7"/>
<path fill-rule="evenodd" clip-rule="evenodd" d="M135.852 144.007C135.852 144.007 159.999 165.856 162.262 198.277C171.94 191.728 185.781 178.593 186.313 179.067C186.846 179.542 173.403 150.499 138.4 139.793C136.803 142.166 135.852 144.007 135.852 144.007Z" fill="#BCDCFD"/>
<path fill-rule="evenodd" clip-rule="evenodd" d="M109.155 0.00411983C150.197 0.489113 189.626 26.072 206.637 63.2726C227.561 109.032 212.954 168.67 167.431 198.524C161.389 202.5 154.935 205.859 148.223 208.55C108.623 224.385 60.1819 214.582 29.7992 182.912C0.738226 152.63 -8.51376 105.023 8.49712 65.6325C14.0244 52.8512 22.0577 41.2354 32.0651 31.3898C32.0651 31.3898 33.7988 30.3325 34.6056 31.3933C35.2922 32.3119 35.2407 33.2476 33.6958 34.8157C33.1465 35.3829 32.5973 35.9553 32.0651 36.5346C6.36858 64.2443 -2.71205 106.583 10.0247 142.176C20.5299 171.515 45.0079 195.594 74.6525 205.516C126.955 223.014 191.96 192.44 207.512 134.155C215.666 103.522 208.697 69.1559 189.111 44.0956C156.48 2.33991 90.3245 -8.43959 45.4886 24.5468C45.4886 24.5468 43.9094 25.4174 42.9825 24.1801C42.0727 22.9428 43.3601 21.6831 43.3601 21.6831C61.7099 7.90277 84.6943 0.151479 107.765 0.000668045C108.228 -0.00104571 108.691 0.000692312 109.155 0.00411983Z" fill="#7CBEFC"/>
<path fill-rule="evenodd" clip-rule="evenodd" d="M106.72 35.5084C105.18 35.3774 103.659 35.3129 102.119 35.2939C101.161 35.287 100.206 35.2848 99.255 35.2827C92.1096 35.2664 85.1705 35.2506 78.5425 33.2286C71.4126 31.1197 67.8765 40.0736 67.4963 46.6415C67.059 54.5021 72.097 61.3091 78.4664 65.4131C86.356 70.5089 94.5541 70.9521 100.813 71.2904C105.867 71.5636 109.656 71.7684 110.998 74.2988C112.531 77.2087 110.322 80.1057 107.899 83.2844C105.483 86.4552 102.852 89.9064 103.507 93.9304C104.572 100.464 112.861 99.9344 115.086 95.4736C116.147 93.3653 118.697 85.2037 120.543 87.26C121.971 88.8562 122.141 92.7531 122.324 96.9534C122.587 102.994 122.878 109.662 126.978 111.017C125.853 116.107 125.247 121.195 125.197 126.322C125.121 133.184 125.653 137.235 126.338 142.352C126.338 142.352 126.547 143.867 127.84 143.742C129.076 143.622 129.171 142.18 129.171 142.18L129.19 140.359C129.282 130.769 129.463 120.893 130.146 111.152C134.88 110.357 136.394 105.554 137.98 100.522C138.758 98.0545 139.553 95.5321 140.753 93.4008C145.621 84.891 151.249 72.6778 146.819 62.0875C144.328 56.1214 138.396 52.9095 132.293 51.894C130.849 51.6538 130.497 51.894 130.152 50.806C126.852 40.3879 118.282 37.6258 113.184 36.484C112.31 36.2847 111.416 36.1159 110.523 35.9716C109.249 35.7685 107.994 35.6166 106.72 35.5084ZM119.877 82.7954C116.078 82.6191 114.397 86.3138 113.203 89.329C108.906 100.54 106.891 94.1031 107.652 91.6658C108.347 89.4292 109.765 87.3598 111.188 85.2823C113.348 82.13 115.521 78.959 115.2 75.1569C114.82 70.7435 110.751 69.3141 107.024 69.018C95.6543 68.2245 80.444 66.4401 73.4662 55.8651C68.0665 47.697 72.8579 35.2711 76.9457 36.2373C77.0978 36.2752 77.2499 36.3171 77.402 36.3626C84.9172 38.648 92.1498 38.7157 99.4992 38.7844C100.238 38.7914 100.978 38.7983 101.72 38.8075C103.184 38.8265 104.629 38.8929 106.074 39.0201C114.448 39.7503 126.048 43.5396 126.852 53.4067C126.949 54.5926 126.967 54.8141 128.319 55.2424C128.319 55.2424 132.844 55.6126 135.772 56.7098C148.454 61.463 145.241 78.2852 138.491 89.3348C136.496 92.5369 135.456 95.9046 134.546 98.8524C133.365 102.674 132.403 105.791 129.859 106.926C126.266 108.541 125.828 103.516 125.733 100.115C125.716 98.9572 125.826 97.6546 125.942 96.2915C126.335 91.6573 126.787 86.3237 122.482 83.6116C121.705 83.1219 120.791 82.8562 119.877 82.7954Z" fill="#7CBEFC"/>
<path d="M78.0445 66.1359C76.4474 75.5265 73.6526 84.9151 69.1084 93.237L71.428 96.0501C72.4165 97.7286 71.4462 110.779 72.253 115.689C75.3868 115.014 80.2176 113.49 82.2087 110.3C82.2087 110.3 82.8739 109.218 83.8626 109.694C84.8703 110.171 84.5662 111.035 84.4331 111.365C82.8229 115.901 78.3863 119.67 72.971 118.904C75.395 127.218 82.5205 133.586 94.5673 132.639C97.7995 132.382 101.146 131.933 103.96 130.446C105.804 129.465 106.013 130.558 106.013 130.558C106.013 130.558 107.135 131.729 101.507 133.483C97.7996 134.636 93.8372 135.3 90.0153 135.231C90.6026 140.398 90.4459 145.441 89.8636 150.622C89.8636 150.622 89.7307 151.96 88.6279 151.96C87.5252 151.96 87.3922 150.622 87.3922 150.622C87.1399 148.171 86.8344 145.711 86.7699 143.246C80.524 146.806 77.1701 156.258 81.8003 161.847C88.9683 170.491 105.51 165.457 113.8 161.418C123.629 156.626 133.174 149.343 136.178 138.57C136.254 138.267 136.33 137.961 136.387 137.654C136.768 135.81 136.653 133.532 135.531 132.137C134.733 131.124 135.722 130.148 135.722 130.148C135.722 130.148 136.787 129.269 137.718 130.336C141.654 134.878 138.878 141.9 136.463 146.131C135.912 147.118 135.284 148.081 134.638 149.014C125.398 162.344 109.198 171.402 92.8661 170.404C85.9453 169.982 78.473 167.038 76.6097 160.104C74.4766 152.1 79.3906 142.765 86.8249 139.999C86.9057 138.494 87.0559 136.875 87.2537 135.047C82.9585 134.54 78.9776 132.983 75.9153 130.002C67.6826 121.999 67.3592 109.125 68.557 98.5027C68.557 98.5027 64.7924 96.1546 65.2297 93.0871C65.2297 93.0871 67.7588 88.4401 69.3939 84.8202C72.1318 78.7116 74.375 72.3772 76.1432 65.9118C76.1432 65.9118 76.6185 63.9188 78.0445 66.1359Z" fill="#7CBEFC"/>
<path d="M142.752 139.772C160.111 143.735 174.162 157.238 182.794 169.825C182.794 169.825 183.535 171.125 182.547 171.827C181.463 172.592 180.532 171.528 180.532 171.528C178.6 169.225 178.174 168.765 177.264 167.784L177.261 167.78C177.16 167.671 177.053 167.556 176.938 167.431C175.645 166.023 174.295 164.654 172.926 163.32C163.819 154.514 153.514 146.402 142.011 142.502C142.011 142.502 140.604 141.915 140.946 140.761C141.288 139.643 142.429 139.704 142.752 139.772Z" fill="#7CBEFC"/>
<path d="M77.8953 145.392C77.8953 145.392 79.6634 144.679 79.2641 143.357C78.8959 142.111 78.046 142.381 77.0083 142.712L76.9065 142.744C61.639 147.556 43.7664 158.405 37.2449 174.502C37.2449 174.502 36.8459 175.715 37.9486 176.373C39.0134 177.011 39.8119 175.683 39.8119 175.683C39.8119 175.683 40.5343 174.405 41.1237 173.553C49.2803 161.827 63.103 151.647 77.8953 145.392Z" fill="#7CBEFC"/>
<path d="M146.9 41.2994C148.637 41.3396 150.432 41.9587 149.63 42.5286C148.461 43.3383 144.295 44.8966 140.574 46.2884L140.57 46.2899C139.979 46.5112 139.398 46.7283 138.843 46.9375C138.06 47.2352 137.048 47.3667 136.762 46.7585C136.456 46.1229 137.125 44.5942 140.466 42.7423C143.044 41.3012 144.647 41.283 146.9 41.2994Z" fill="#7CBEFC"/>
<path d="M132.374 47.6441C133.099 44.236 133.099 40.3787 132.049 37.5697C131.419 35.9022 132.469 35.9004 132.469 35.9004C132.469 35.9004 136.173 36.9706 136.517 42.4041C136.517 42.7712 136.498 43.1438 136.46 43.5127C136.231 45.3355 135.601 47.0724 134.665 48.665C134.665 48.665 133.653 50.1737 132.908 49.8029C132.546 49.6185 132.049 49.1637 132.374 47.6441Z" fill="#7CBEFC"/>
</svg></g></g></g><g transform="translate(72, 36)"><text x="0" y="4" fill="#52565F" font-family="Roboto,sans-serif" font-weight="500" text-anchor="start" font-size="16">Patient</text></g></g><g transform="translate(1008, 480)"><path d="M68.5 44.5 L110 27 A4.846153846153847 4.846153846153847 0 0 1 114 27 L155.5 44.5 L197 62 A2.1724137931034484 2.1724137931034484 0 0 1 197 66 L155.5 83.5 L114 101 A4.846153846153847 4.846153846153847 0 0 1 110 101 L68.5 83.5 L27 66 A2.1724137931034484 2.1724137931034484 0 0 1 27 62 Z" fill="#ffffff" stroke="#4d9ef6" stroke-width="2"/><g transform="translate(64.5, 44)"><text font-size="14" font-family="Roboto,sans-serif" x="47.5" y="25" text-anchor="middle" fill="#52565f">Logged In</text></g></g><g transform="translate(1008, 864)"><path d="M68.5 44.5 L110 27 A4.846153846153847 4.846153846153847 0 0 1 114 27 L155.5 44.5 L197 62 A2.1724137931034484 2.1724137931034484 0 0 1 197 66 L155.5 83.5 L114 101 A4.846153846153847 4.846153846153847 0 0 1 110 101 L68.5 83.5 L27 66 A2.1724137931034484 2.1724137931034484 0 0 1 27 62 Z" fill="#ffffff" stroke="#4d9ef6" stroke-width="2"/><g transform="translate(64.5, 44)"><text font-size="14" font-family="Roboto,sans-serif" x="47.5" y="25" text-anchor="middle" fill="#52565f">Signed In</text></g></g><g transform="translate(336, 192)"><path d="M68.5 44.5 L110 27 A4.846153846153847 4.846153846153847 0 0 1 114 27 L155.5 44.5 L197 62 A2.1724137931034484 2.1724137931034484 0 0 1 197 66 L155.5 83.5 L114 101 A4.846153846153847 4.846153846153847 0 0 1 110 101 L68.5 83.5 L27 66 A2.1724137931034484 2.1724137931034484 0 0 1 27 62 Z" fill="#ffffff" stroke="#4d9ef6" stroke-width="2"/><g transform="translate(64.5, 44)"><text font-size="14" font-family="Roboto,sans-serif" x="47.5" y="25" text-anchor="middle" fill="#52565f">Logged In</text></g></g><g transform="translate(0, 416)"><path d="M68.5 44.5 L110 27 A4.846153846153847 4.846153846153847 0 0 1 114 27 L155.5 44.5 L197 62 A2.1724137931034484 2.1724137931034484 0 0 1 197 66 L155.5 83.5 L114 101 A4.846153846153847 4.846153846153847 0 0 1 110 101 L68.5 83.5 L27 66 A2.1724137931034484 2.1724137931034484 0 0 1 27 62 Z" fill="#ffffff" stroke="#4d9ef6" stroke-width="2"/><g transform="translate(64.5, 44)"><text font-size="14" font-family="Roboto,sans-serif" x="47.5" y="25" text-anchor="middle" fill="#52565f">Signed In</text></g></g></g><g><g><path fill="none" stroke="#4d9ef6" stroke-width="2" stroke-dasharray="0px 0px" d="M 820,256L 840,256L 840,256L 858,256"/><path transform="translate( 822, 253 ) rotate( 450 )" d="M3 6C4.65685 6 6 4.65685 6 3C6 1.34315 4.65685 0 3 0C1.34315 0 0 1.34315 0 3C0 4.65685 1.34315 6 3 6Z" fill="#4d9ef6"/><path transform="translate( 860, 249 ) rotate( 450 )" d="M6.34003 0.275664C6.70452 -0.0918881 7.29548 -0.0918881 7.65997 0.275664L13.7266 6.39331C14.0911 6.76086 14.0911 7.35678 13.7266 7.72434C13.3621 8.09189 12.7712 8.09189 12.4067 7.72434L7 2.2722L1.5933 7.72434C1.22881 8.09189 0.637856 8.09189 0.273367 7.72434C-0.0911224 7.35678 -0.0911224 6.76086 0.273367 6.39331L6.34003 0.275664Z" fill="#4d9ef6"/></g><g><path fill="none" stroke="#4d9ef6" stroke-width="2" stroke-dasharray="0px 0px" d="M 636,256L 616,256L 560,256L 537,256"/><path transform="translate( 634, 259 ) rotate( 270 )" d="M3 6C4.65685 6 6 4.65685 6 3C6 1.34315 4.65685 0 3 0C1.34315 0 0 1.34315 0 3C0 4.65685 1.34315 6 3 6Z" fill="#4d9ef6"/><path transform="translate( 535, 263 ) rotate( 630 )" d="M6.34003 0.275664C6.70452 -0.0918881 7.29548 -0.0918881 7.65997 0.275664L13.7266 6.39331C14.0911 6.76086 14.0911 7.35678 13.7266 7.72434C13.3621 8.09189 12.7712 8.09189 12.4067 7.72434L7 2.2722L1.5933 7.72434C1.22881 8.09189 0.637856 8.09189 0.273367 7.72434C-0.0911224 7.35678 -0.0911224 6.76086 0.273367 6.39331L6.34003 0.275664Z" fill="#4d9ef6"/></g><g><path fill="none" stroke="#4d9ef6" stroke-width="2" stroke-dasharray="0px 0px" d="M 1044,256L 1064,256L 1176,256L 1194,256"/><path transform="translate( 1046, 253 ) rotate( 450 )" d="M3 6C4.65685 6 6 4.65685 6 3C6 1.34315 4.65685 0 3 0C1.34315 0 0 1.34315 0 3C0 4.65685 1.34315 6 3 6Z" fill="#4d9ef6"/><path transform="translate( 1196, 249 ) rotate( 450 )" d="M6.34003 0.275664C6.70452 -0.0918881 7.29548 -0.0918881 7.65997 0.275664L13.7266 6.39331C14.0911 6.76086 14.0911 7.35678 13.7266 7.72434C13.3621 8.09189 12.7712 8.09189 12.4067 7.72434L7 2.2722L1.5933 7.72434C1.22881 8.09189 0.637856 8.09189 0.273367 7.72434C-0.0911224 7.35678 -0.0911224 6.76086 0.273367 6.39331L6.34003 0.275664Z" fill="#4d9ef6"/></g><g><path fill="none" stroke="#4d9ef6" stroke-width="2" stroke-dasharray="0px 0px" d="M 952,372L 952,384L 952,470Q952,480 962,480L 1110,480Q1120,480 1120,490L 1120,503.5"/><path transform="translate( 955, 374 ) rotate( 180 )" d="M3 6C4.65685 6 6 4.65685 6 3C6 1.34315 4.65685 0 3 0C1.34315 0 0 1.34315 0 3C0 4.65685 1.34315 6 3 6Z" fill="#4d9ef6"/><path transform="translate( 1127, 505.5 ) rotate( 540 )" d="M6.34003 0.275664C6.70452 -0.0918881 7.29548 -0.0918881 7.65997 0.275664L13.7266 6.39331C14.0911 6.76086 14.0911 7.35678 13.7266 7.72434C13.3621 8.09189 12.7712 8.09189 12.4067 7.72434L7 2.2722L1.5933 7.72434C1.22881 8.09189 0.637856 8.09189 0.273367 7.72434C-0.0911224 7.35678 -0.0911224 6.76086 0.273367 6.39331L6.34003 0.275664Z" fill="#4d9ef6"/></g><g><path fill="none" stroke="#4d9ef6" stroke-width="2" stroke-dasharray="0px 0px" d="M 1288,372L 1288,384L 1288,470Q1288,480 1278,480L 1130,480Q1120,480 1120,490L 1120,503.5"/><path transform="translate( 1291, 374 ) rotate( 180 )" d="M3 6C4.65685 6 6 4.65685 6 3C6 1.34315 4.65685 0 3 0C1.34315 0 0 1.34315 0 3C0 4.65685 1.34315 6 3 6Z" fill="#4d9ef6"/><path transform="translate( 1127, 505.5 ) rotate( 540 )" d="M6.34003 0.275664C6.70452 -0.0918881 7.29548 -0.0918881 7.65997 0.275664L13.7266 6.39331C14.0911 6.76086 14.0911 7.35678 13.7266 7.72434C13.3621 8.09189 12.7712 8.09189 12.4067 7.72434L7 2.2722L1.5933 7.72434C1.22881 8.09189 0.637856 8.09189 0.273367 7.72434C-0.0911224 7.35678 -0.0911224 6.76086 0.273367 6.39331L6.34003 0.275664Z" fill="#4d9ef6"/></g><g><path fill="none" stroke="#4d9ef6" stroke-width="2" stroke-dasharray="0px 0px" d="M 1120,852L 1120,864L 1120,864L 1120,887.5"/><path transform="translate( 1123, 854 ) rotate( 180 )" d="M3 6C4.65685 6 6 4.65685 6 3C6 1.34315 4.65685 0 3 0C1.34315 0 0 1.34315 0 3C0 4.65685 1.34315 6 3 6Z" fill="#4d9ef6"/><path transform="translate( 1127, 889.5 ) rotate( 540 )" d="M6.34003 0.275664C6.70452 -0.0918881 7.29548 -0.0918881 7.65997 0.275664L13.7266 6.39331C14.0911 6.76086 14.0911 7.35678 13.7266 7.72434C13.3621 8.09189 12.7712 8.09189 12.4067 7.72434L7 2.2722L1.5933 7.72434C1.22881 8.09189 0.637856 8.09189 0.273367 7.72434C-0.0911224 7.35678 -0.0911224 6.76086 0.273367 6.39331L6.34003 0.275664Z" fill="#4d9ef6"/></g><g><path fill="none" stroke="#4d9ef6" stroke-width="2" stroke-dasharray="0px 0px" d="M 728,102L 728,128L 728,128L 728,138"/><path transform="translate( 731, 104 ) rotate( 180 )" d="M3 6C4.65685 6 6 4.65685 6 3C6 1.34315 4.65685 0 3 0C1.34315 0 0 1.34315 0 3C0 4.65685 1.34315 6 3 6Z" fill="#4d9ef6"/><path transform="translate( 735, 140 ) rotate( 540 )" d="M6.34003 0.275664C6.70452 -0.0918881 7.29548 -0.0918881 7.65997 0.275664L13.7266 6.39331C14.0911 6.76086 14.0911 7.35678 13.7266 7.72434C13.3621 8.09189 12.7712 8.09189 12.4067 7.72434L7 2.2722L1.5933 7.72434C1.22881 8.09189 0.637856 8.09189 0.273367 7.72434C-0.0911224 7.35678 -0.0911224 6.76086 0.273367 6.39331L6.34003 0.275664Z" fill="#4d9ef6"/></g><g><path fill="none" stroke="#4d9ef6" stroke-width="2" stroke-dasharray="0px 0px" d="M 448,820L 448,832L 448,832L 448,842"/><path transform="translate( 451, 822 ) rotate( 180 )" d="M3 6C4.65685 6 6 4.65685 6 3C6 1.34315 4.65685 0 3 0C1.34315 0 0 1.34315 0 3C0 4.65685 1.34315 6 3 6Z" fill="#4d9ef6"/><path transform="translate( 455, 844 ) rotate( 540 )" d="M6.34003 0.275664C6.70452 -0.0918881 7.29548 -0.0918881 7.65997 0.275664L13.7266 6.39331C14.0911 6.76086 14.0911 7.35678 13.7266 7.72434C13.3621 8.09189 12.7712 8.09189 12.4067 7.72434L7 2.2722L1.5933 7.72434C1.22881 8.09189 0.637856 8.09189 0.273367 7.72434C-0.0911224 7.35678 -0.0911224 6.76086 0.273367 6.39331L6.34003 0.275664Z" fill="#4d9ef6"/></g><g><path fill="none" stroke="#4d9ef6" stroke-width="2" stroke-dasharray="0px 0px" d="M 448,820L 448,822Q448,832 458,832L 662,832Q672,832 672,842L 672,842"/><path transform="translate( 451, 822 ) rotate( 180 )" d="M3 6C4.65685 6 6 4.65685 6 3C6 1.34315 4.65685 0 3 0C1.34315 0 0 1.34315 0 3C0 4.65685 1.34315 6 3 6Z" fill="#4d9ef6"/><path transform="translate( 679, 844 ) rotate( 540 )" d="M6.34003 0.275664C6.70452 -0.0918881 7.29548 -0.0918881 7.65997 0.275664L13.7266 6.39331C14.0911 6.76086 14.0911 7.35678 13.7266 7.72434C13.3621 8.09189 12.7712 8.09189 12.4067 7.72434L7 2.2722L1.5933 7.72434C1.22881 8.09189 0.637856 8.09189 0.273367 7.72434C-0.0911224 7.35678 -0.0911224 6.76086 0.273367 6.39331L6.34003 0.275664Z" fill="#4d9ef6"/></g><g><path fill="none" stroke="#4d9ef6" stroke-width="2" stroke-dasharray="0px 0px" d="M 448,820L 448,822Q448,832 438,832L 234,832Q224,832 224,842L 224,842"/><path transform="translate( 451, 822 ) rotate( 180 )" d="M3 6C4.65685 6 6 4.65685 6 3C6 1.34315 4.65685 0 3 0C1.34315 0 0 1.34315 0 3C0 4.65685 1.34315 6 3 6Z" fill="#4d9ef6"/><path transform="translate( 231, 844 ) rotate( 540 )" d="M6.34003 0.275664C6.70452 -0.0918881 7.29548 -0.0918881 7.65997 0.275664L13.7266 6.39331C14.0911 6.76086 14.0911 7.35678 13.7266 7.72434C13.3621 8.09189 12.7712 8.09189 12.4067 7.72434L7 2.2722L1.5933 7.72434C1.22881 8.09189 0.637856 8.09189 0.273367 7.72434C-0.0911224 7.35678 -0.0911224 6.76086 0.273367 6.39331L6.34003 0.275664Z" fill="#4d9ef6"/></g><g><path fill="none" stroke="#4d9ef6" stroke-width="2" stroke-dasharray="0px 0px" d="M 112,372L 112,384L 112,416L 112,439.5"/><path transform="translate( 115, 374 ) rotate( 180 )" d="M3 6C4.65685 6 6 4.65685 6 3C6 1.34315 4.65685 0 3 0C1.34315 0 0 1.34315 0 3C0 4.65685 1.34315 6 3 6Z" fill="#4d9ef6"/><path transform="translate( 119, 441.5 ) rotate( 540 )" d="M6.34003 0.275664C6.70452 -0.0918881 7.29548 -0.0918881 7.65997 0.275664L13.7266 6.39331C14.0911 6.76086 14.0911 7.35678 13.7266 7.72434C13.3621 8.09189 12.7712 8.09189 12.4067 7.72434L7 2.2722L1.5933 7.72434C1.22881 8.09189 0.637856 8.09189 0.273367 7.72434C-0.0911224 7.35678 -0.0911224 6.76086 0.273367 6.39331L6.34003 0.275664Z" fill="#4d9ef6"/></g><g><path fill="none" stroke="#4d9ef6" stroke-width="2" stroke-dasharray="0px 0px" d="M 204,704L 224,704L 336,704L 354,704"/><path transform="translate( 206, 701 ) rotate( 450 )" d="M3 6C4.65685 6 6 4.65685 6 3C6 1.34315 4.65685 0 3 0C1.34315 0 0 1.34315 0 3C0 4.65685 1.34315 6 3 6Z" fill="#4d9ef6"/><path transform="translate( 356, 697 ) rotate( 450 )" d="M6.34003 0.275664C6.70452 -0.0918881 7.29548 -0.0918881 7.65997 0.275664L13.7266 6.39331C14.0911 6.76086 14.0911 7.35678 13.7266 7.72434C13.3621 8.09189 12.7712 8.09189 12.4067 7.72434L7 2.2722L1.5933 7.72434C1.22881 8.09189 0.637856 8.09189 0.273367 7.72434C-0.0911224 7.35678 -0.0911224 6.76086 0.273367 6.39331L6.34003 0.275664Z" fill="#4d9ef6"/></g><g><path fill="none" stroke="#4d9ef6" stroke-width="2" stroke-dasharray="0px 0px" d="M 1120,582.5L 1120,608L 1120,608L 1120,618"/><path transform="translate( 1123, 584.5 ) rotate( 180 )" d="M3 6C4.65685 6 6 4.65685 6 3C6 1.34315 4.65685 0 3 0C1.34315 0 0 1.34315 0 3C0 4.65685 1.34315 6 3 6Z" fill="#4d9ef6"/><path transform="translate( 1127, 620 ) rotate( 540 )" d="M6.34003 0.275664C6.70452 -0.0918881 7.29548 -0.0918881 7.65997 0.275664L13.7266 6.39331C14.0911 6.76086 14.0911 7.35678 13.7266 7.72434C13.3621 8.09189 12.7712 8.09189 12.4067 7.72434L7 2.2722L1.5933 7.72434C1.22881 8.09189 0.637856 8.09189 0.273367 7.72434C-0.0911224 7.35678 -0.0911224 6.76086 0.273367 6.39331L6.34003 0.275664Z" fill="#4d9ef6"/></g><g><path fill="none" stroke="#4d9ef6" stroke-width="2" stroke-dasharray="0px 0px" d="M 1207,544L 1232,544L 1334,544Q1344,544 1344,554L 1344,608L 1344,618"/><path transform="translate( 1209, 541 ) rotate( 450 )" d="M3 6C4.65685 6 6 4.65685 6 3C6 1.34315 4.65685 0 3 0C1.34315 0 0 1.34315 0 3C0 4.65685 1.34315 6 3 6Z" fill="#4d9ef6"/><path transform="translate( 1351, 620 ) rotate( 540 )" d="M6.34003 0.275664C6.70452 -0.0918881 7.29548 -0.0918881 7.65997 0.275664L13.7266 6.39331C14.0911 6.76086 14.0911 7.35678 13.7266 7.72434C13.3621 8.09189 12.7712 8.09189 12.4067 7.72434L7 2.2722L1.5933 7.72434C1.22881 8.09189 0.637856 8.09189 0.273367 7.72434C-0.0911224 7.35678 -0.0911224 6.76086 0.273367 6.39331L6.34003 0.275664Z" fill="#4d9ef6"/></g><g><path fill="none" stroke="#4d9ef6" stroke-width="2" stroke-dasharray="0px 0px" d="M 1120,966.5L 1120,992L 1120,992L 1120,1002"/><path transform="translate( 1123, 968.5 ) rotate( 180 )" d="M3 6C4.65685 6 6 4.65685 6 3C6 1.34315 4.65685 0 3 0C1.34315 0 0 1.34315 0 3C0 4.65685 1.34315 6 3 6Z" fill="#4d9ef6"/><path transform="translate( 1127, 1004 ) rotate( 540 )" d="M6.34003 0.275664C6.70452 -0.0918881 7.29548 -0.0918881 7.65997 0.275664L13.7266 6.39331C14.0911 6.76086 14.0911 7.35678 13.7266 7.72434C13.3621 8.09189 12.7712 8.09189 12.4067 7.72434L7 2.2722L1.5933 7.72434C1.22881 8.09189 0.637856 8.09189 0.273367 7.72434C-0.0911224 7.35678 -0.0911224 6.76086 0.273367 6.39331L6.34003 0.275664Z" fill="#4d9ef6"/></g><g><path fill="none" stroke="#4d9ef6" stroke-width="2" stroke-dasharray="0px 0px" d="M 1207,928L 1232,928L 1334,928Q1344,928 1344,918L 1344,864L 1344,854"/><path transform="translate( 1209, 925 ) rotate( 450 )" d="M3 6C4.65685 6 6 4.65685 6 3C6 1.34315 4.65685 0 3 0C1.34315 0 0 1.34315 0 3C0 4.65685 1.34315 6 3 6Z" fill="#4d9ef6"/><path transform="translate( 1337, 852 ) rotate( 360 )" d="M6.34003 0.275664C6.70452 -0.0918881 7.29548 -0.0918881 7.65997 0.275664L13.7266 6.39331C14.0911 6.76086 14.0911 7.35678 13.7266 7.72434C13.3621 8.09189 12.7712 8.09189 12.4067 7.72434L7 2.2722L1.5933 7.72434C1.22881 8.09189 0.637856 8.09189 0.273367 7.72434C-0.0911224 7.35678 -0.0911224 6.76086 0.273367 6.39331L6.34003 0.275664Z" fill="#4d9ef6"/></g><g><path fill="none" stroke="#4d9ef6" stroke-width="2" stroke-dasharray="0px 0px" d="M 361,256L 336,256L 224,256L 206,256"/><path transform="translate( 359, 259 ) rotate( 270 )" d="M3 6C4.65685 6 6 4.65685 6 3C6 1.34315 4.65685 0 3 0C1.34315 0 0 1.34315 0 3C0 4.65685 1.34315 6 3 6Z" fill="#4d9ef6"/><path transform="translate( 204, 263 ) rotate( 630 )" d="M6.34003 0.275664C6.70452 -0.0918881 7.29548 -0.0918881 7.65997 0.275664L13.7266 6.39331C14.0911 6.76086 14.0911 7.35678 13.7266 7.72434C13.3621 8.09189 12.7712 8.09189 12.4067 7.72434L7 2.2722L1.5933 7.72434C1.22881 8.09189 0.637856 8.09189 0.273367 7.72434C-0.0911224 7.35678 -0.0911224 6.76086 0.273367 6.39331L6.34003 0.275664Z" fill="#4d9ef6"/></g><g><path fill="none" stroke="#4d9ef6" stroke-width="2" stroke-dasharray="0px 0px" d="M 448,294.5L 448,320L 448,576L 448,586"/><path transform="translate( 451, 296.5 ) rotate( 180 )" d="M3 6C4.65685 6 6 4.65685 6 3C6 1.34315 4.65685 0 3 0C1.34315 0 0 1.34315 0 3C0 4.65685 1.34315 6 3 6Z" fill="#4d9ef6"/><path transform="translate( 455, 588 ) rotate( 540 )" d="M6.34003 0.275664C6.70452 -0.0918881 7.29548 -0.0918881 7.65997 0.275664L13.7266 6.39331C14.0911 6.76086 14.0911 7.35678 13.7266 7.72434C13.3621 8.09189 12.7712 8.09189 12.4067 7.72434L7 2.2722L1.5933 7.72434C1.22881 8.09189 0.637856 8.09189 0.273367 7.72434C-0.0911224 7.35678 -0.0911224 6.76086 0.273367 6.39331L6.34003 0.275664Z" fill="#4d9ef6"/></g><g><path fill="none" stroke="#4d9ef6" stroke-width="2" stroke-dasharray="0px 0px" d="M 112,518.5L 112,544L 112,576L 112,586"/><path transform="translate( 115, 520.5 ) rotate( 180 )" d="M3 6C4.65685 6 6 4.65685 6 3C6 1.34315 4.65685 0 3 0C1.34315 0 0 1.34315 0 3C0 4.65685 1.34315 6 3 6Z" fill="#4d9ef6"/><path transform="translate( 119, 588 ) rotate( 540 )" d="M6.34003 0.275664C6.70452 -0.0918881 7.29548 -0.0918881 7.65997 0.275664L13.7266 6.39331C14.0911 6.76086 14.0911 7.35678 13.7266 7.72434C13.3621 8.09189 12.7712 8.09189 12.4067 7.72434L7 2.2722L1.5933 7.72434C1.22881 8.09189 0.637856 8.09189 0.273367 7.72434C-0.0911224 7.35678 -0.0911224 6.76086 0.273367 6.39331L6.34003 0.275664Z" fill="#4d9ef6"/></g><g><path fill="none" stroke="#4d9ef6" stroke-width="2" stroke-dasharray="0px 0px" d="M 199,480L 224,480L 438,480Q448,480 448,490L 448,576L 448,586"/><path transform="translate( 201, 477 ) rotate( 450 )" d="M3 6C4.65685 6 6 4.65685 6 3C6 1.34315 4.65685 0 3 0C1.34315 0 0 1.34315 0 3C0 4.65685 1.34315 6 3 6Z" fill="#4d9ef6"/><path transform="translate( 455, 588 ) rotate( 540 )" d="M6.34003 0.275664C6.70452 -0.0918881 7.29548 -0.0918881 7.65997 0.275664L13.7266 6.39331C14.0911 6.76086 14.0911 7.35678 13.7266 7.72434C13.3621 8.09189 12.7712 8.09189 12.4067 7.72434L7 2.2722L1.5933 7.72434C1.22881 8.09189 0.637856 8.09189 0.273367 7.72434C-0.0911224 7.35678 -0.0911224 6.76086 0.273367 6.39331L6.34003 0.275664Z" fill="#4d9ef6"/></g></g></g></g></svg>